<svg xmlns="http://www.w3.org/2000/svg" version="1.1" xmlns:xlink="http://www.w3.org/1999/xlink" xmlns:svgjs="http://svgjs.com/svgjs" width="122.101" height="108.002"><svg width="122.101" height="108.002" viewBox="0 0 122.101 108.002" xmlns="http://www.w3.org/2000/svg">
    <g id="SvgjsG1001" stroke-linecap="round" fill-rule="nonzero" font-size="9pt" stroke="#1a2529" stroke-width="0.5mm" fill="#1a2529" style="stroke: #1a2529; stroke-width: 0.5mm; fill: #1a2529">
        <path d="M 90.001 108.001 L 18.001 108.001 Q 13.051 108.001 8.926 105.601 Q 4.801 103.201 2.401 99.076 Q 0.001 94.951 0.001 90.001 L 0.001 18.001 Q 0.001 13.051 2.401 8.926 Q 4.801 4.801 8.926 2.401 Q 13.051 0.001 18.001 0.001 L 90.001 0.001 Q 94.951 0.001 99.076 2.401 Q 103.201 4.801 105.601 8.926 Q 108.001 13.051 108.001 18.001 L 108.001 90.001 Q 108.001 94.951 105.601 99.076 Q 103.201 103.201 99.076 105.601 Q 94.951 108.001 90.001 108.001 Z M 18.001 95.851 L 90.001 95.851 A 5.62 5.62 0 0 0 94.072 94.179 A 6.963 6.963 0 0 0 94.126 94.126 A 5.772 5.772 0 0 0 95.563 91.848 A 5.833 5.833 0 0 0 95.851 90.001 L 95.851 18.001 A 5.62 5.62 0 0 0 94.179 13.93 A 6.963 6.963 0 0 0 94.126 13.876 A 5.772 5.772 0 0 0 91.848 12.438 A 5.833 5.833 0 0 0 90.001 12.151 L 18.001 12.151 A 5.62 5.62 0 0 0 13.93 13.822 A 6.963 6.963 0 0 0 13.876 13.876 A 5.772 5.772 0 0 0 12.438 16.154 A 5.833 5.833 0 0 0 12.151 18.001 L 12.151 90.001 A 5.62 5.62 0 0 0 13.822 94.072 A 6.963 6.963 0 0 0 13.876 94.126 A 5.772 5.772 0 0 0 16.154 95.563 A 5.833 5.833 0 0 0 18.001 95.851 Z M 122.101 108.001 L 88.801 108.001 L 88.801 102.601 L 108.001 89.551 L 108.001 95.851 L 122.101 95.851 L 122.101 108.001 Z" id="SvgjsPath1000" vector-effect="non-scaling-stroke"></path>
    </g>
</svg><style>@media (prefers-color-scheme: light) { :root { filter: none; } }
@media (prefers-color-scheme: dark) { :root { filter: invert(100%); } }
</style></svg>