<?xml version="1.0" encoding="UTF-8" standalone="no"?><svg xmlns="http://www.w3.org/2000/svg" xmlns:xlink="http://www.w3.org/1999/xlink" fill="#ffffff" height="80" preserveAspectRatio="xMidYMid meet" version="1" viewBox="10.0 10.0 80.0 80.0" width="80" zoomAndPan="magnify"><g id="change1_1"><path d="M61.984375,54.5849609c-0.9058228,0-1.7683716,0.2722778-2.5005493,0.772522 c-0.7591553-0.5602417-1.6654663-0.8760376-2.6264038-0.8760376c-1.1889648,0-2.3066406,0.4628906-3.1469727,1.3037109 c-0.390625,0.390625-0.390625,1.0239258,0,1.4140625c0.390625,0.390625,1.0244141,0.390625,1.4140625,0 c0.9257812-0.925293,2.5390625-0.9262695,3.465332,0c0.4628906,0.4628906,0.7177734,1.078125,0.7177734,1.7324219 c0,0.6547852-0.2548828,1.2700195-0.7177734,1.7329102c-0.390625,0.390625-0.390625,1.0234375,0,1.4140625 c0.1953125,0.1953125,0.4511719,0.2929688,0.7070312,0.2929688s0.5117188-0.0976562,0.7070312-0.2929688 c0.8408203-0.8408203,1.3037109-1.9580078,1.3037109-3.1469727c0-0.7175903-0.187439-1.4002686-0.5062256-2.020813 c0.9276733-0.4949341,2.1531982-0.3707886,2.9158936,0.3919067c0.1953125,0.1953125,0.4511719,0.2929688,0.7070312,0.2929688 s0.5117188-0.0976562,0.7070312-0.2929688c0.390625-0.3901367,0.390625-1.0234375,0-1.4140625 C64.2910156,55.0478516,63.1733398,54.5849609,61.984375,54.5849609z"/><path d="M69.9726562,51.7041016c-0.2451172-0.2563477-0.5097656-0.4946289-0.7900391-0.7128906 c1.2407227-0.8881836,2.0424805-2.3398438,2.0424805-3.9360352c0-2.1855469-1.4589844-4.0429688-3.4541016-4.6464844 c0.4604492-1.5737305,0.3803711-3.2670898-0.2475586-4.8837891c-0.7338867-1.8881836-2.3081055-3.4140625-4.2109566-4.081543 c-1.5595512-0.5473633-3.1533012-0.5986328-4.6235161-0.1796875c0.0664062-0.7807617-0.0571289-1.5888672-0.3793945-2.3720703 c-0.4970894-1.2070312-1.4873047-2.1494141-2.7172852-2.5859375c-1.5693359-0.5581055-3.2226562-0.3452148-4.5351562,0.5810547 C50.6471558,29.1760864,50.2967529,29.5286255,50,29.9188232c-0.2967529-0.3901978-0.6471558-0.7427368-1.0571289-1.0321045 c-1.3120117-0.9262695-2.965332-1.1391602-4.5351562-0.5810547c-1.2299805,0.4365234-2.2202339,1.3789062-2.7172852,2.5859375 c-0.3222656,0.7832031-0.4458008,1.5913086-0.3793945,2.3720703c-1.46875-0.4194336-3.0634766-0.3681641-4.6235542,0.1796875 c-1.902813,0.6674805-3.4770317,2.1933594-4.2109184,4.081543c-0.6279297,1.6166992-0.7080078,3.3100586-0.2475586,4.8837891 c-1.9951172,0.6035156-3.4541016,2.4609375-3.4541016,4.6464844c0,1.5961914,0.8017578,3.0478516,2.0424805,3.9360352 c-0.2802734,0.2182617-0.5449219,0.456543-0.7900391,0.7128906c-0.0004883,0-0.0004883,0-0.0004883,0 c-1.3168945,1.375-2.0424805,3.1806641-2.0424805,5.0839844c0,3.1933594,2.0356445,5.9624023,4.9780273,6.9624023 c-0.2768555,1.2250977-0.1430664,2.4956055,0.4008789,3.7304688c0.5683594,1.2900391,1.6518555,2.3422852,2.9711914,2.8857422 c1.5585938,0.6435547,3.1767578,0.6337891,4.6386719-0.0117188c1.1166992,1.0717773,2.5629883,1.6416016,4.0791016,1.6411133 c0.765625,0,1.5493164-0.1450195,2.3168945-0.4443359C48.4556885,71.1286621,49.3637085,70.3635254,50,69.3982544 c0.6362915,0.965271,1.5443115,1.7304077,2.6308594,2.1535034c0.7675781,0.2993164,1.5512695,0.4443359,2.3168945,0.4443359 c1.5161133,0,2.9624023-0.5693359,4.0791016-1.6411133c1.4628906,0.6455078,3.081543,0.6547852,4.6381836,0.012207 c1.3198242-0.5439453,2.4033203-1.5961914,2.9716797-2.8862305c0.5439453-1.2348633,0.6777344-2.5053711,0.4008789-3.7304688 c2.9423828-1,4.9780273-3.769043,4.9780273-6.9624023c0-1.9033203-0.7255859-3.7089844-2.0424805-5.0839844 C69.9731445,51.7041016,69.9731445,51.7041016,69.9726562,51.7041016z M46.6435547,69.6884766 c-2.0947266,0.8154297-3.7851562-0.0839844-4.6689453-1.1982422c-0.1962891-0.246582-0.487793-0.3779297-0.7836914-0.3779297 c-0.1801758,0-0.3613281,0.0483398-0.5244141,0.1489258c-0.7666016,0.4726562-2.0063477,0.9013672-3.5698242,0.2563477 c-0.847168-0.3486328-1.5410156-1.0209961-1.9033203-1.8432617c-0.6020508-1.3671875-0.3510742-2.5053711-0.034668-3.2197266 c0.125-0.28125,0.1132812-0.6044922-0.0317383-0.8759766s-0.4067383-0.4614258-0.7099609-0.5141602 c-2.5683594-0.449707-4.4326172-2.668457-4.4326172-5.2763672c0-1.3852539,0.527832-2.6992188,1.4863281-3.7001953 c0.5463867-0.5698242,1.222168-1.0195312,1.9545898-1.3017578c0.4238281-0.1630859,0.6845703-0.5917969,0.6347656-1.0429688 c-0.050293-0.4516602-0.3984375-0.8129883-0.8476562-0.8793945c-1.4125977-0.2089844-2.4375-1.3901367-2.4375-2.8085938 c0-1.5664062,1.2749023-2.8461914,2.8422852-2.8530273c0.3461914-0.0014648,0.6669922-0.1821289,0.8481445-0.4770508 c0.1806641-0.2949219,0.1962891-0.6625977,0.0410156-0.972168c-0.4926758-0.9804688-0.9213867-2.5576172-0.1655273-4.503418 c0.5249023-1.3510742,1.6499023-2.4423828,3.0087891-2.9194336c1.8662109-0.6552734,3.7875977-0.3554688,5.2705078,0.8183594 c0.4052734,0.3212891,0.9873047,0.2807617,1.3432617-0.0917969c0.3569336-0.3725586,0.371582-0.9555664,0.0341797-1.3457031 c-0.7387695-0.8549805-0.9057617-1.9692383-0.4575195-3.0576172c0.2768555-0.6728516,0.8510742-1.2197266,1.5366211-1.4628906 c0.949707-0.3383789,1.9370117-0.2172852,2.7128906,0.3300781C48.5473633,31.0556641,49,31.9282227,49,32.8549805v26.9893188 c-0.8814697-0.6928711-1.9779053-1.1235962-3.1835938-1.1235962c-2.8583984,0-5.1835938,2.3251953-5.1835938,5.1831055 c0,0.5522461,0.4477539,1,1,1s1-0.4477539,1-1c0-1.7553711,1.4282227-3.1831055,3.1835938-3.1831055S49,62.1484375,49,63.9038086 v2.144043C49,67.6762695,48.0527344,69.1391602,46.6435547,69.6884766z M65.5830078,62.0644531 c-0.3032227,0.0527344-0.5649414,0.2426758-0.7099609,0.5141602s-0.1567383,0.5947266-0.0317383,0.8759766 c0.3164062,0.7143555,0.5673828,1.8525391-0.034668,3.2197266c-0.3623047,0.8222656-1.0561523,1.4946289-1.9038086,1.84375 c-1.5615234,0.6445312-2.8027344,0.2158203-3.5693359-0.2568359c-0.4311523-0.2651367-0.9931641-0.1674805-1.3081055,0.2290039 c-0.8837891,1.1137695-2.5727539,2.0141602-4.6689453,1.1982422C51.9472656,69.1391602,51,67.6762695,51,66.0478516V46.0619507 c0.8814697,0.6928711,1.9779053,1.1235962,3.1835938,1.1235962c2.8583984,0,5.1835938-2.3251953,5.1835938-5.1835938 c0-0.5522461-0.4477539-1-1-1s-1,0.4477539-1,1c0,1.7553711-1.4282227,3.1835938-3.1835938,3.1835938S51,43.7573242,51,42.0019531 v-9.1469727c0-0.9267578,0.4526367-1.7993164,1.2104492-2.3344727c0.4858398-0.3427734,1.0551758-0.5180664,1.6464844-0.5180664 c0.3520508,0,0.7119141,0.0620117,1.0664062,0.1879883c0.6855469,0.2431641,1.2597656,0.7900391,1.5366211,1.4628906 c0.4482422,1.0883789,0.28125,2.2026367-0.4575195,3.0576172c-0.3374023,0.3901367-0.3227539,0.9731445,0.0341797,1.3457031 c0.3564453,0.3730469,0.9389648,0.4125977,1.3432617,0.0917969c1.4829102-1.1748047,3.4033203-1.4731445,5.2705078-0.8183594 c1.3588867,0.4770508,2.4838867,1.5683594,3.0087891,2.9194336c0.7558594,1.9458008,0.3271484,3.5229492-0.1655273,4.503418 c-0.1552734,0.3095703-0.1396484,0.6772461,0.0410156,0.972168c0.1811523,0.2949219,0.5019531,0.4755859,0.8481445,0.4770508 c1.5673828,0.0068359,2.8422852,1.2866211,2.8422852,2.8530273c0,1.418457-1.0249023,2.5996094-2.4375,2.8085938 c-0.4492188,0.0664062-0.7973633,0.4277344-0.8476562,0.8793945c-0.0498047,0.4511719,0.2109375,0.8798828,0.6347656,1.0429688 c0.7324219,0.2822266,1.4082031,0.7319336,1.9545898,1.3017578c0.9584961,1.0009766,1.4863281,2.3149414,1.4863281,3.7001953 C70.015625,59.3959961,68.1513672,61.6147461,65.5830078,62.0644531z"/><path d="M42.5561523,50.0488281c0,0.5522461,0.4477539,1,1,1s1-0.4477539,1-1c0-1.5663452-0.817627-2.9396362-2.0441895-3.7330933 c0.0049438-0.0048828,0.0109253-0.0080566,0.0158691-0.0130005c1.7348633-1.7353516,1.7348633-4.5585938,0-6.2939453 c-0.390625-0.390625-1.0234375-0.390625-1.4140625,0c-0.390625,0.3901367-0.390625,1.0234375,0,1.4140625 c0.9550781,0.9555664,0.9550781,2.5102539,0,3.4658203c-0.9550781,0.9550781-2.5107422,0.9550781-3.4658203,0 c-0.390625-0.390625-1.0244141-0.390625-1.4140625,0c-0.390625,0.390625-0.390625,1.0239258,0,1.4140625 c0.8676758,0.8676758,2.0073242,1.3012695,3.1469727,1.3012695c0.1713257,0,0.3410034-0.0293579,0.5114136-0.0489502 c0.0708008,0.0159302,0.1375732,0.0430908,0.2131958,0.0430908C41.456543,47.5981445,42.5561523,48.6977539,42.5561523,50.0488281z"/><path d="M89,51c0.5522461,0,1-0.4477539,1-1s-0.4477539-1-1-1h-9V35h5.2110596C85.597168,35.8821411,86.4754028,36.5,87.5,36.5 c1.3806763,0,2.5-1.1193237,2.5-2.5c0-1.3807373-1.1193237-2.5-2.5-2.5c-1.0246582,0-1.9028931,0.6177368-2.2889404,1.5H80v-8 c0-2.7568359-2.2431641-5-5-5h-7.9956055v-9c0-0.5522461-0.4477539-1-1-1s-1,0.4477539-1,1v9h-14v-9c0-0.5522461-0.4477539-1-1-1 s-1,0.4477539-1,1v9h-14v-5.2110596c0.8822632-0.3860474,1.500061-1.2642822,1.500061-2.2889404c0-1.3807373-1.1193237-2.5-2.5-2.5 c-1.3807373,0-2.5,1.1192627-2.5,2.5c0,1.0245972,0.6177979,1.902832,1.499939,2.2889404V20H25c-2.7568359,0-5,2.2431641-5,5v8h-9 c-0.5522461,0-1,0.4477539-1,1s0.4477539,1,1,1h9v14h-9c-0.5522461,0-1,0.4477539-1,1s0.4477539,1,1,1h9v14h-5.2110596 C14.4028931,64.1177368,13.5246582,63.5,12.5,63.5c-1.3807373,0-2.5,1.1192627-2.5,2.5c0,1.3806763,1.1192627,2.5,2.5,2.5 c1.0245972,0,1.902832-0.6178589,2.2889404-1.5H20v8c0,2.7568359,2.2431641,5,5,5h8v5.2218018 c-0.8796997,0.387146-1.4955444,1.2637329-1.4955444,2.2865601c0,1.3806763,1.1192627,2.5,2.5,2.5 c1.3806763,0,2.5-1.1193237,2.5-2.5c0-1.0264282-0.619812-1.906311-1.5044556-2.2913208V80h14v9c0,0.5522461,0.4477539,1,1,1 s1-0.4477539,1-1v-9h14v9c0,0.5522461,0.4477539,1,1,1s1-0.4477539,1-1v-9h8c2.7568359,0,5-2.2431641,5-5v-8h9 c0.5522461,0,1-0.4477539,1-1s-0.4477539-1-1-1h-9V51H89z M78,75c0,1.6542969-1.3457031,3-3,3H25c-1.6542969,0-3-1.3457031-3-3V25 c0-1.6542969,1.3457031-3,3-3h50c1.6542969,0,3,1.3457031,3,3V75z"/></g></svg>