<?xml version="1.0" encoding="UTF-8" standalone="no"?><svg xmlns="http://www.w3.org/2000/svg" xmlns:xlink="http://www.w3.org/1999/xlink" fill="#ffffff" height="3657.2" preserveAspectRatio="xMidYMid meet" version="1" viewBox="521.8 169.1 2956.4 3657.2" width="2956.4" zoomAndPan="magnify"><g id="change1_1"><path d="M1429.48,1644.58l-83.82,83.82l-200.74-10.25c-17.22-0.88-33.14,9.18-39.74,25.11l-75.18,181.51 c-6.6,15.94-2.46,34.3,10.34,45.86l149.2,134.7v118.54l-149.2,134.7c-12.8,11.56-16.95,29.92-10.34,45.86l75.18,181.51 c6.6,15.94,22.53,26,39.74,25.11l200.74-10.25l83.82,83.82l-10.25,200.74c-0.88,17.23,9.18,33.14,25.11,39.74l181.51,75.18 c15.94,6.6,34.3,2.46,45.86-10.34l134.7-149.2h118.54l134.7,149.2c7.9,8.75,18.97,13.45,30.27,13.45c5.24,0,10.54-1.01,15.59-3.11 l181.51-75.18c15.94-6.6,25.99-22.52,25.11-39.74l-10.25-200.74l83.82-83.82l200.74,10.25c17.24,0.88,33.14-9.18,39.74-25.11 l75.18-181.51c6.6-15.94,2.46-34.3-10.34-45.86l-149.2-134.7v-118.54l149.2-134.7c12.8-11.56,16.94-29.92,10.34-45.86 l-75.18-181.51c-6.6-15.94-22.5-26-39.74-25.11l-200.74,10.25l-83.82-83.82l10.25-200.74c0.88-17.23-9.18-33.14-25.11-39.74 l-181.51-75.18c-15.93-6.6-34.3-2.46-45.86,10.34l-134.7,149.2H1806.4l-134.7-149.2c-11.56-12.8-29.92-16.95-45.86-10.34 l-181.51,75.18c-15.94,6.6-25.99,22.52-25.11,39.74L1429.48,1644.58z M1499.94,1689.42c8.16-8.16,12.48-19.39,11.89-30.91 l-9.71-190.11l128.35-53.16l127.56,141.29c7.73,8.56,18.72,13.45,30.26,13.45h154.77c11.53,0,22.53-4.89,30.26-13.45l127.56-141.29 l128.35,53.16l-9.71,190.11c-0.59,11.52,3.73,22.75,11.89,30.91l109.44,109.44c8.16,8.16,19.38,12.48,30.91,11.89l190.11-9.71 l53.16,128.35l-141.29,127.56c-8.56,7.73-13.45,18.72-13.45,30.26v154.77c0,11.53,4.89,22.53,13.45,30.26l141.29,127.56 l-53.16,128.35l-190.1-9.71c-11.51-0.59-22.75,3.73-30.91,11.89l-109.44,109.44c-8.16,8.16-12.48,19.39-11.89,30.91l9.71,190.11 l-128.35,53.16l-127.56-141.29c-7.73-8.56-18.72-13.45-30.26-13.45h-154.77c-11.53,0-22.53,4.89-30.26,13.45l-127.56,141.29 l-128.35-53.16l9.71-190.11c0.59-11.52-3.73-22.75-11.89-30.91l-109.44-109.44c-8.16-8.16-19.39-12.47-30.91-11.89l-190.11,9.71 l-53.16-128.35l141.29-127.56c8.56-7.73,13.45-18.72,13.45-30.26V2087.2c0-11.53-4.89-22.53-13.45-30.26l-141.29-127.56 l53.16-128.35l190.11,9.71c11.52,0.59,22.75-3.73,30.91-11.89L1499.94,1689.42z"/><path d="M1544.91,2485.35c41.65,41.65,90.16,74.35,144.18,97.2c55.95,23.67,115.36,35.67,176.58,35.67 c61.22,0,120.63-12,176.58-35.67c54.02-22.85,102.53-55.55,144.18-97.2c41.65-41.65,74.35-90.16,97.2-144.18 c23.66-55.95,35.66-115.36,35.66-176.59s-12-120.63-35.66-176.58c-22.85-54.02-55.55-102.53-97.2-144.18 c-41.65-41.65-90.16-74.35-144.18-97.2c-55.95-23.67-115.36-35.67-176.58-35.67c-61.22,0-120.63,12-176.58,35.67 c-54.02,22.85-102.53,55.55-144.18,97.2c-41.65,41.65-74.35,90.16-97.2,144.18c-23.67,55.95-35.67,115.36-35.67,176.58 s12,120.63,35.67,176.59C1470.56,2395.2,1503.26,2443.7,1544.91,2485.35z M1602.56,1901.48 c70.28-70.28,163.72-108.98,263.11-108.98s192.83,38.7,263.11,108.98c70.28,70.28,108.99,163.72,108.99,263.11 c0,99.39-38.7,192.83-108.99,263.11c-70.28,70.28-163.72,108.99-263.11,108.99s-192.83-38.71-263.11-108.99 c-70.28-70.28-108.98-163.72-108.98-263.11C1493.57,2065.2,1532.28,1971.76,1602.56,1901.48z"/><path d="M1696.25,2405.81h338.83c41.94,0,76.06-34.12,76.06-76.06c0-65.57-25.53-127.21-71.9-173.58 c-17.34-17.34-36.82-31.77-57.85-43.04c23.63-27.04,37.98-62.39,37.98-101.04c0-84.76-68.95-153.71-153.71-153.71 c-84.76,0-153.71,68.95-153.71,153.71c0,38.65,14.34,74.01,37.98,101.04c-21.02,11.27-40.5,25.69-57.85,43.03 c-46.36,46.36-71.9,108.01-71.9,173.58C1620.19,2371.68,1654.31,2405.81,1696.25,2405.81z M1793.49,2012.09 c0-39.8,32.38-72.18,72.18-72.18c39.8,0,72.18,32.38,72.18,72.18c0,39.8-32.38,72.18-72.18,72.18 C1825.87,2084.27,1793.49,2051.89,1793.49,2012.09z M1865.67,2165.8c88.57,0,160.96,70.6,163.86,158.47h-327.71 C1704.71,2236.4,1777.1,2165.8,1865.67,2165.8z"/><path d="M2103.48,3252.22c-30.87-30.87-66.84-55.12-106.89-72.06c-41.49-17.55-85.54-26.45-130.92-26.45 c-45.38,0-89.43,8.9-130.92,26.45c-40.05,16.94-76.02,41.18-106.89,72.06c-30.87,30.87-55.12,66.83-72.06,106.89 c-17.55,41.49-26.45,85.54-26.45,130.92s8.9,89.43,26.45,130.92c16.94,40.05,41.18,76.02,72.06,106.89 c30.87,30.87,66.83,55.12,106.89,72.06c41.49,17.55,85.54,26.45,130.92,26.45c45.38,0,89.43-8.9,130.92-26.45 c40.05-16.94,76.02-41.18,106.89-72.06c30.87-30.87,55.12-66.83,72.06-106.89c17.55-41.49,26.45-85.54,26.45-130.92 s-8.9-89.43-26.45-130.92C2158.59,3319.05,2134.35,3283.09,2103.48,3252.22z M2045.83,3670.18 c-48.12,48.12-112.1,74.62-180.16,74.62c-68.05,0-132.03-26.5-180.16-74.62c-48.12-48.12-74.62-112.1-74.62-180.16 s26.5-132.03,74.62-180.16c48.12-48.12,112.1-74.62,180.16-74.62c68.05,0,132.03,26.5,180.16,74.62 c48.12,48.12,74.62,112.1,74.62,180.16S2093.95,3622.06,2045.83,3670.18z"/><path d="M1906.43,3473.14v-138.95c0-22.51-18.25-40.77-40.77-40.77c-22.51,0-40.77,18.25-40.77,40.77v155.83 c0,10.81,4.29,21.18,11.94,28.83l88,88c7.96,7.96,18.39,11.94,28.83,11.94s20.87-3.98,28.83-11.94c15.92-15.92,15.92-41.73,0-57.65 L1906.43,3473.14z"/><path d="M1684.16,1064.67c22.51,0,40.77-18.25,40.77-40.77V858.66c0-22.51-18.25-40.77-40.77-40.77h-165.24 c-22.51,0-40.77,18.25-40.77,40.77v165.24c0,22.51,18.25,40.77,40.77,40.77H1684.16z M1559.69,899.43h83.7v83.71h-83.7V899.43z"/><path d="M1992.29,1064.67c22.51,0,40.77-18.25,40.77-40.77V712.43c0-22.51-18.25-40.77-40.77-40.77h-165.24 c-22.51,0-40.77,18.25-40.77,40.77v311.47c0,22.51,18.25,40.77,40.77,40.77H1992.29z M1867.82,753.19h83.7v229.94h-83.7V753.19z"/><path d="M2094.41,513.44v510.46c0,22.51,18.25,40.77,40.77,40.77h165.24c22.51,0,40.77-18.25,40.77-40.77V513.44 c0-22.51-18.25-40.77-40.77-40.77h-165.24C2112.66,472.67,2094.41,490.92,2094.41,513.44z M2175.94,554.2h83.71v428.93h-83.71 V554.2z"/><path d="M1518.88,722.11c1.28,0,2.58-0.06,3.88-0.18l9.51-0.9c68.13-6.43,135.49-20.87,200.2-42.92 c63.87-21.77,125.26-50.98,182.47-86.83c57.21-35.85,110.28-78.35,157.72-126.33c41.39-41.85,78.54-87.94,110.73-137.29l9.4,33.61 c5.04,18.01,21.41,29.79,39.24,29.79c3.63,0,7.33-0.49,11-1.52c21.68-6.07,34.34-28.56,28.28-50.24l-38-135.84 c-6.06-21.68-28.56-34.34-50.24-28.28l-135.84,38c-21.68,6.07-34.34,28.56-28.28,50.24c6.06,21.68,28.56,34.34,50.24,28.28 l49.27-13.78c-29.96,46.72-64.79,90.28-103.77,129.7c-43.03,43.51-91.15,82.06-143.04,114.57 c-51.89,32.51-107.56,59.01-165.48,78.75c-58.68,20-119.77,33.1-181.56,38.93l-9.51,0.9c-22.41,2.11-38.87,22-36.76,44.41 C1480.33,706.28,1498.09,722.11,1518.88,722.11z"/><path d="M1518.92,1197.66h781.49c22.51,0,40.77-18.25,40.77-40.77s-18.25-40.77-40.77-40.77h-781.49 c-22.51,0-40.77,18.25-40.77,40.77S1496.41,1197.66,1518.92,1197.66z"/><path d="M1437.39,3352.41c-120.36-43.4-233.23-104.87-335.48-182.68c-101.21-77.03-190.02-168.53-263.95-271.97 c-74.85-104.73-132.96-219.64-172.7-341.53c-41.09-126.02-61.92-257.78-61.92-391.63c0-251.62,73.81-494.57,213.44-702.6 c67.34-100.32,148.62-190.44,241.58-267.86c74.79-62.29,156.21-115.55,242.77-158.9l-13.25,51.88 c-5.57,21.81,7.6,44.01,29.41,49.58c3.38,0.86,6.78,1.28,10.12,1.28c18.19,0,34.76-12.26,39.47-30.69l40.39-158.15 c5.57-21.81-7.6-44.01-29.41-49.59l-158.15-40.39c-21.82-5.57-44.01,7.6-49.58,29.41c-5.57,21.81,7.6,44.01,29.41,49.59 l75.15,19.19c-95.91,47.03-186,105.42-268.5,174.13c-98.93,82.39-185.43,178.3-257.1,285.07 c-148.69,221.51-227.28,480.18-227.28,748.04c0,142.44,22.18,282.71,65.93,416.9c42.32,129.81,104.19,252.17,183.88,363.67 c78.68,110.09,173.19,207.47,280.9,289.45c108.85,82.84,229.03,148.28,357.19,194.5c4.57,1.65,9.24,2.43,13.83,2.43 c16.7,0,32.36-10.34,38.35-26.95C1469.55,3383.41,1458.57,3360.05,1437.39,3352.41z"/><path d="M3451.73,1961.96c-16.94-40.05-41.18-76.01-72.06-106.89c-30.87-30.87-66.83-55.12-106.89-72.06 c-40.09-16.95-82.57-25.81-126.33-26.39c-26.14-82.12-60.39-162-101.91-237.67c-43.57-79.39-95.46-154.72-154.23-223.91 c-58.51-68.89-124.21-132.11-195.27-187.92c-71.52-56.17-148.93-105.18-230.08-145.68c-20.14-10.05-44.63-1.87-54.68,18.27 c-10.05,20.15-1.87,44.63,18.27,54.68c76.22,38.04,148.94,84.08,216.12,136.85c66.77,52.44,128.51,111.85,183.49,176.58 c55.22,65.01,103.97,135.78,144.89,210.36c36.35,66.24,66.77,135.92,90.61,207.53c-17.96,4.28-35.57,10.04-52.73,17.3 c-40.05,16.94-76.01,41.18-106.89,72.06c-30.87,30.87-55.12,66.84-72.06,106.89c-17.55,41.49-26.45,85.54-26.45,130.92 s8.9,89.43,26.45,130.92c16.94,40.05,41.18,76.01,72.06,106.89c30.87,30.87,66.83,55.12,106.89,72.06 c28.83,12.19,58.9,20.2,89.79,23.96c-43.37,205.19-138.16,397.46-275.25,557.79c-125.08,146.28-281.95,262.16-457.17,338.36 l21.21-73.01c6.28-21.62-6.15-44.24-27.77-50.52c-21.62-6.28-44.24,6.15-50.52,27.77l-45.54,156.75 c-6.28,21.62,6.15,44.24,27.77,50.52l156.75,45.54c3.8,1.1,7.63,1.63,11.39,1.63c17.67,0,33.95-11.58,39.13-29.4 c6.28-21.62-6.15-44.24-27.77-50.52l-49.1-14.27c177.25-81.1,335.98-200.62,463.59-349.86 c149.72-175.1,252.04-386.02,296.52-610.89c30.55-3.81,60.29-11.78,88.82-23.85c40.05-16.94,76.01-41.18,106.89-72.06 c30.87-30.87,55.12-66.83,72.06-106.89c17.55-41.49,26.45-85.54,26.45-130.92S3469.28,2003.45,3451.73,1961.96z M3322.02,2273.04 c-48.12,48.12-112.1,74.62-180.16,74.62s-132.03-26.5-180.16-74.62s-74.62-112.1-74.62-180.16s26.5-132.03,74.62-180.16 c48.12-48.12,112.1-74.62,180.16-74.62s132.03,26.5,180.16,74.62c48.12,48.12,74.62,112.1,74.62,180.16 S3370.15,2224.92,3322.02,2273.04z"/><path d="M3232.45,1994.75l-148.5,148.5l-55.81-55.81c-15.92-15.92-41.73-15.92-57.65,0c-15.92,15.92-15.92,41.73,0,57.65 l84.63,84.63c7.64,7.64,18.01,11.94,28.83,11.94c10.81,0,21.18-4.3,28.83-11.94l177.33-177.33c15.92-15.92,15.92-41.73,0-57.65 C3274.18,1978.83,3248.37,1978.83,3232.45,1994.75z"/></g></svg>