<?xml version="1.0" encoding="UTF-8" standalone="no"?><svg xmlns="http://www.w3.org/2000/svg" xmlns:xlink="http://www.w3.org/1999/xlink" fill="#000000" height="143" preserveAspectRatio="xMidYMid meet" version="1" viewBox="28.0 28.5 144.0 143.0" width="144" zoomAndPan="magnify"><g fill="#ffffff" id="change1_1"><path d="M 164.808594 70.109375 L 115.222656 70.109375 L 115.222656 78.15625 L 163.980469 78.15625 L 163.980469 139.289062 L 71.449219 139.289062 L 71.449219 111.195312 L 63.402344 111.195312 L 63.402344 140.113281 C 63.402344 141.605469 63.855469 142.996094 64.636719 144.148438 C 65.285156 145.109375 66.160156 145.90625 67.179688 146.464844 C 68.203125 147.019531 69.375 147.335938 70.617188 147.335938 L 114.085938 147.335938 L 114.085938 157.117188 C 108.652344 157.457031 103.953125 158.542969 100.882812 160.0625 C 98.492188 161.246094 97.089844 162.691406 97.089844 164.253906 C 97.089844 168.253906 106.320312 171.5 117.714844 171.5 C 129.105469 171.5 138.339844 168.253906 138.339844 164.253906 C 138.339844 162.246094 136.015625 160.429688 132.265625 159.117188 C 129.351562 158.097656 125.566406 157.382812 121.339844 157.117188 L 121.339844 147.335938 L 164.808594 147.335938 C 167.292969 147.335938 169.492188 146.070312 170.789062 144.148438 C 171.570312 142.996094 172.023438 141.605469 172.023438 140.113281 L 172.023438 77.324219 C 172.023438 73.351562 168.785156 70.109375 164.808594 70.109375"/><path d="M 59.34375 63.488281 L 41.429688 73.832031 C 41.285156 73.917969 41.285156 74.128906 41.429688 74.214844 L 59.34375 84.558594 C 59.492188 84.644531 59.675781 84.535156 59.675781 84.367188 L 59.675781 79.476562 C 59.675781 79.394531 59.636719 79.324219 59.566406 79.28125 L 50.789062 74.214844 C 50.640625 74.128906 50.640625 73.917969 50.789062 73.832031 L 59.566406 68.765625 C 59.636719 68.722656 59.675781 68.648438 59.675781 68.570312 L 59.675781 63.679688 C 59.675781 63.511719 59.492188 63.402344 59.34375 63.488281"/><path d="M 78.335938 84.558594 L 96.25 74.214844 C 96.398438 74.128906 96.398438 73.917969 96.25 73.832031 L 78.335938 63.488281 C 78.1875 63.402344 78.003906 63.511719 78.003906 63.679688 L 78.003906 68.570312 C 78.003906 68.648438 78.046875 68.722656 78.113281 68.765625 L 86.894531 73.832031 C 87.042969 73.917969 87.042969 74.128906 86.894531 74.214844 L 78.113281 79.28125 C 78.046875 79.324219 78.003906 79.394531 78.003906 79.476562 L 78.003906 84.367188 C 78.003906 84.535156 78.1875 84.644531 78.335938 84.558594"/><path d="M 76.492188 59.59375 L 71.914062 59.476562 L 61.1875 88.453125 L 65.738281 88.652344 L 76.492188 59.59375"/><path d="M 34.203125 48.679688 L 103.476562 48.679688 L 103.476562 99.449219 L 34.203125 99.449219 Z M 71.449219 105.679688 L 109.707031 105.679688 L 109.707031 42.453125 L 27.976562 42.453125 L 27.976562 105.679688 L 71.449219 105.679688"/><path d="M 97.433594 35.683594 C 96.289062 35.683594 95.363281 34.753906 95.363281 33.609375 C 95.363281 32.46875 96.289062 31.539062 97.433594 31.539062 C 98.578125 31.539062 99.503906 32.46875 99.503906 33.609375 C 99.503906 34.753906 98.578125 35.683594 97.433594 35.683594 Z M 89.183594 35.683594 C 88.042969 35.683594 87.113281 34.753906 87.113281 33.609375 C 87.113281 32.46875 88.042969 31.539062 89.183594 31.539062 C 90.328125 31.539062 91.253906 32.46875 91.253906 33.609375 C 91.253906 34.753906 90.328125 35.683594 89.183594 35.683594 Z M 80.9375 35.683594 C 79.792969 35.683594 78.867188 34.753906 78.867188 33.609375 C 78.867188 32.46875 79.792969 31.539062 80.9375 31.539062 C 82.082031 31.539062 83.007812 32.46875 83.007812 33.609375 C 83.007812 34.753906 82.082031 35.683594 80.9375 35.683594 Z M 73.195312 35.550781 L 40.117188 35.550781 C 39.046875 35.550781 38.179688 34.683594 38.179688 33.609375 C 38.179688 32.539062 39.046875 31.671875 40.117188 31.671875 L 73.195312 31.671875 C 74.265625 31.671875 75.132812 32.539062 75.132812 33.609375 C 75.132812 34.683594 74.265625 35.550781 73.195312 35.550781 Z M 99.484375 28.5 L 38.199219 28.5 C 32.550781 28.5 27.976562 33.078125 27.976562 38.722656 L 109.707031 38.722656 C 109.707031 33.078125 105.128906 28.5 99.484375 28.5"/></g></svg>