<?xml version="1.0" encoding="UTF-8" standalone="no"?><svg xmlns="http://www.w3.org/2000/svg" xmlns:xlink="http://www.w3.org/1999/xlink" fill="#ffffff" height="510" preserveAspectRatio="xMidYMid meet" version="1" viewBox="1.0 1.0 510.0 510.0" width="510" zoomAndPan="magnify"><g><g id="change1_1"><path d="M501,236c5.522,0,10-4.477,10-10s-4.478-10-10-10H401v-40h50c5.522,0,10-4.477,10-10v-30h40c5.522,0,10-4.477,10-10 s-4.478-10-10-10h-50c-5.522,0-10,4.477-10,10v30h-40c-0.042-15.997,0.1-34.903-0.109-36.395 c-0.691-4.943-4.942-8.608-9.897-8.605H356V71h30c5.522,0,10-4.477,10-10V11c0-5.523-4.478-10-10-10s-10,4.477-10,10v40h-30 c-5.522,0-10,4.477-10,10v50h-40V11c0-5.523-4.478-10-10-10s-10,4.477-10,10v100h-40V11c0-5.523-4.478-10-10-10s-10,4.477-10,10 v100h-40V61c0-5.523-4.478-10-10-10h-30V11c0-5.523-4.478-10-10-10s-10,4.477-10,10v50c0,5.523,4.478,10,10,10h30v40 c-37.39,0.018-36.206-0.323-38.829,0.763c-2.408,0.999-4.375,2.922-5.408,5.407c-1.104,2.668-0.745,1.665-0.763,38.83H71v-30 c0-5.523-4.478-10-10-10H11c-5.522,0-10,4.477-10,10s4.478,10,10,10h40v30c0,5.523,4.478,10,10,10h50v40H11 c-5.522,0-10,4.477-10,10s4.478,10,10,10h100v40H11c-5.522,0-10,4.478-10,10s4.478,10,10,10h100v40H61c-5.522,0-10,4.478-10,10v30 H11c-5.522,0-10,4.478-10,10s4.478,10,10,10h50c5.522,0,10-4.478,10-10v-30h40c0.018,37.467-0.105,35.448,0.194,36.957 c0.928,4.667,5.048,8.042,9.805,8.043c21.665,0,13.332,0,35,0v40h-30c-5.522,0-10,4.478-10,10v50c0,5.522,4.478,10,10,10 s10-4.478,10-10v-40h30c5.522,0,10-4.478,10-10v-50h40v100c0,5.522,4.478,10,10,10s10-4.478,10-10V401h40v100 c0,5.522,4.478,10,10,10s10-4.478,10-10V401h40v50c0,5.522,4.478,10,10,10h30v40c0,5.522,4.478,10,10,10s10-4.478,10-10v-50 c0-5.522-4.478-10-10-10h-30v-40c37.374,0,35.865,0.185,37.902-0.431c3.833-1.161,6.653-4.562,7.048-8.579 c0.095-0.959,0.032,0.903,0.05-35.989h40v30c0,5.522,4.478,10,10,10h50c5.522,0,10-4.478,10-10s-4.478-10-10-10h-40v-30 c0-5.522-4.478-10-10-10h-50v-40h100c5.522,0,10-4.478,10-10s-4.478-10-10-10H401v-40H501z M131,145.143l40,40v141.715l-40,40 V145.143z M191,321v-30h20c5.522,0,10-4.478,10-10s-4.478-10-10-10h-20v-30h20c5.522,0,10-4.477,10-10s-4.478-10-10-10h-20v-30 h130v30h-20c-5.522,0-10,4.477-10,10s4.478,10,10,10h20v30h-20c-5.522,0-10,4.478-10,10s4.478,10,10,10h20v30H191z M341,326.857 V185.143l40-40v221.715L341,326.857z"/></g></g></svg>