<?xml version="1.0" encoding="UTF-8" standalone="no"?><svg xmlns="http://www.w3.org/2000/svg" xmlns:xlink="http://www.w3.org/1999/xlink" fill="#000000" height="1080" style="width:100%;height:100%" viewBox="0 0 1080 1080" width="1080"><defs><clipPath id="a"><path d="M0 0H1080V1080H0z"/></clipPath></defs><g clip-path="url(#a)"><g display="block"><g><path d="M-353.98699951171875,282.197998046875 C-398.322998046875,240.1540069580078 -415.8699951171875,178.4290008544922 -408.2489929199219,113.10399627685547 C-404.0889892578125,77.44599914550781 -404.5169982910156,41.43199920654297 -408.2120056152344,5.723999977111816 C-416.16400146484375,-71.11299896240234 -384.90899658203125,-160.27200317382812 -317.54901123046875,-231.30499267578125 C-235.85400390625,-317.4540100097656 -124.72799682617188,-351.98699951171875 -38.10100173950195,-326.5060119628906 C1.8919999599456787,-314.74200439453125 44.6879997253418,-315.9849853515625 83.55500030517578,-331.0570068359375 C170.15699768066406,-364.63800048828125 262.7040100097656,-354.6619873046875 324.2070007324219,-296.3389892578125 C416.16400146484375,-209.13699340820312 403.88299560546875,-46.875 296.760009765625,66.08999633789062 C237.3730010986328,128.71499633789062 161.30299377441406,163.03399658203125 89.63400268554688,166.3260040283203 C61.43299865722656,167.6219940185547 35.301998138427734,181.32899475097656 17.740999221801758,203.4320068359375 C11.177000045776367,211.6929931640625 4.168000221252441,219.7740020751953 -3.2850000858306885,227.63299560546875 C-110.03700256347656,340.2049865722656 -267.0509948730469,364.6390075683594 -353.98699951171875,282.197998046875z" fill="#5ce1e6" transform="translate(523.78 596.514)"/></g></g><g display="block"><g><path d="M440.4259948730469,748.0189819335938 C440.4259948730469,748.0189819335938 440.4259948730469,549.0070190429688 440.4259948730469,549.0070190429688 C440.4259948730469,549.0070190429688 440.4259948730469,748.0189819335938 440.4259948730469,748.0189819335938z" fill="#ffffff" transform="translate(87.824 83.961)"/></g><g><path d="M440.4259948730469,748.02001953125 C440.4259948730469,748.02001953125 440.4259948730469,549.0079956054688 440.4259948730469,549.0079956054688" fill="none" stroke="#231f1f" stroke-linecap="round" stroke-linejoin="round" stroke-width="2" transform="translate(87.824 83.961)"/></g><g><path d="M-68.80899810791016,68.80799865722656 C-68.80899810791016,68.80799865722656 68.80899810791016,-68.80899810791016 68.80899810791016,-68.80899810791016" fill="#ffffff" transform="translate(338.164 691.303)"/><path d="M-68.80899810791016,68.80799865722656 C-68.80899810791016,68.80799865722656 68.80899810791016,-68.80899810791016 68.80899810791016,-68.80899810791016" fill="none" stroke="#231f1f" stroke-linecap="round" stroke-linejoin="round" stroke-width="2" transform="translate(338.164 691.303)"/></g><g><path d="M81.95800018310547,413.5199890136719 C81.95800018310547,413.5199890136719 281.1059875488281,413.5199890136719 281.1059875488281,413.5199890136719 C281.1059875488281,413.5199890136719 81.95800018310547,413.5199890136719 81.95800018310547,413.5199890136719z" fill="#0097b2" transform="translate(87.824 83.961)"/></g><g><path d="M81.95700073242188,413.5199890136719 C81.95700073242188,413.5199890136719 281.1059875488281,413.5199890136719 281.1059875488281,413.5199890136719" fill="none" stroke="#231f1f" stroke-linecap="round" stroke-linejoin="round" stroke-width="2" transform="translate(87.824 83.961)"/></g><g><path d="M-55.40399932861328,-55.40399932861328 C-55.40399932861328,-55.40399932861328 55.40399932861328,55.40399932861328 55.40399932861328,55.40399932861328" fill="#0097b2" transform="translate(343.143 343.686)"/><path d="M-55.40399932861328,-55.40399932861328 C-55.40399932861328,-55.40399932861328 55.40399932861328,55.40399932861328 55.40399932861328,55.40399932861328" fill="none" stroke="#231f1f" stroke-linecap="round" stroke-linejoin="round" stroke-width="2" transform="translate(343.143 343.686)"/></g><g><path d="M440.4259948730469,268.1499938964844 C440.4259948730469,268.1499938964844 440.4259948730469,140.49000549316406 440.4259948730469,140.49000549316406 C440.4259948730469,140.49000549316406 440.4259948730469,268.1499938964844 440.4259948730469,268.1499938964844z" fill="#0097b2" transform="translate(87.824 83.961)"/></g><g><path d="M440.4259948730469,140.49099731445312 C440.4259948730469,140.49099731445312 440.4259948730469,268.1510009765625 440.4259948730469,268.1510009765625" fill="none" stroke="#231f1f" stroke-linecap="round" stroke-linejoin="round" stroke-width="2" transform="translate(87.824 83.961)"/></g><g><path d="M74.04299926757812,0 C74.04299926757812,40.893001556396484 40.891998291015625,74.04299926757812 -0.0010000000474974513,74.04299926757812 C-40.893001556396484,74.04299926757812 -74.04299926757812,40.893001556396484 -74.04299926757812,0 C-74.04299926757812,-40.893001556396484 -40.893001556396484,-74.04299926757812 -0.0010000000474974513,-74.04299926757812 C40.891998291015625,-74.04299926757812 74.04299926757812,-40.893001556396484 74.04299926757812,0z" fill="#ffffff" transform="translate(528.25 163.004)"/><path d="M74.04299926757812,0 C74.04299926757812,40.893001556396484 40.891998291015625,74.04299926757812 -0.0010000000474974513,74.04299926757812 C-40.893001556396484,74.04299926757812 -74.04299926757812,40.893001556396484 -74.04299926757812,0 C-74.04299926757812,-40.893001556396484 -40.893001556396484,-74.04299926757812 -0.0010000000474974513,-74.04299926757812 C40.891998291015625,-74.04299926757812 74.04299926757812,-40.893001556396484 74.04299926757812,0z" fill="none" stroke="#231f1f" stroke-linecap="round" stroke-linejoin="round" stroke-width="2" transform="translate(528.25 163.004)"/></g><g><path d="M181.78700256347656,0 C181.78700256347656,100.39800262451172 100.39800262451172,181.78700256347656 0,181.78700256347656 C-100.39900207519531,181.78700256347656 -181.78700256347656,100.39800262451172 -181.78700256347656,0 C-181.78700256347656,-100.39800262451172 -100.39900207519531,-181.78700256347656 0,-181.78700256347656 C100.39800262451172,-181.78700256347656 181.78700256347656,-100.39800262451172 181.78700256347656,0z" fill="#ffffff" transform="translate(528.25 513.566)"/><path d="M181.78700256347656,0 C181.78700256347656,100.39800262451172 100.39800262451172,181.78700256347656 0,181.78700256347656 C-100.39900207519531,181.78700256347656 -181.78700256347656,100.39800262451172 -181.78700256347656,0 C-181.78700256347656,-100.39800262451172 -100.39900207519531,-181.78700256347656 0,-181.78700256347656 C100.39800262451172,-181.78700256347656 181.78700256347656,-100.39800262451172 181.78700256347656,0z" fill="none" stroke="#231f1f" stroke-linecap="round" stroke-linejoin="round" stroke-width="2" transform="translate(528.25 513.566)"/></g><g><path d="M74.04299926757812,0 C74.04299926757812,40.893001556396484 40.891998291015625,74.04299926757812 -0.0010000000474974513,74.04299926757812 C-40.893001556396484,74.04299926757812 -74.04299926757812,40.893001556396484 -74.04299926757812,0 C-74.04299926757812,-40.893001556396484 -40.893001556396484,-74.04299926757812 -0.0010000000474974513,-74.04299926757812 C40.891998291015625,-74.04299926757812 74.04299926757812,-40.893001556396484 74.04299926757812,0z" fill="#ffffff" transform="translate(166.867 497.481)"/><path d="M74.04299926757812,0 C74.04299926757812,40.893001556396484 40.891998291015625,74.04299926757812 -0.0010000000474974513,74.04299926757812 C-40.893001556396484,74.04299926757812 -74.04299926757812,40.893001556396484 -74.04299926757812,0 C-74.04299926757812,-40.893001556396484 -40.893001556396484,-74.04299926757812 -0.0010000000474974513,-74.04299926757812 C40.891998291015625,-74.04299926757812 74.04299926757812,-40.893001556396484 74.04299926757812,0z" fill="none" stroke="#231f1f" stroke-linecap="round" stroke-linejoin="round" stroke-width="2" transform="translate(166.867 497.481)"/></g><g><path d="M57.2400016784668,0 C57.2400016784668,31.613000869750977 31.613000869750977,57.2400016784668 0,57.2400016784668 C-31.613000869750977,57.2400016784668 -57.2400016784668,31.613000869750977 -57.2400016784668,0 C-57.2400016784668,-31.613000869750977 -31.613000869750977,-57.2400016784668 0,-57.2400016784668 C31.613000869750977,-57.2400016784668 57.2400016784668,-31.613000869750977 57.2400016784668,0z" fill="#ffffff" transform="translate(266.341 260.743)"/><path d="M57.2400016784668,0 C57.2400016784668,31.613000869750977 31.613000869750977,57.2400016784668 0,57.2400016784668 C-31.613000869750977,57.2400016784668 -57.2400016784668,31.613000869750977 -57.2400016784668,0 C-57.2400016784668,-31.613000869750977 -31.613000869750977,-57.2400016784668 0,-57.2400016784668 C31.613000869750977,-57.2400016784668 57.2400016784668,-31.613000869750977 57.2400016784668,0z" fill="none" stroke="#231f1f" stroke-linecap="round" stroke-linejoin="round" stroke-width="2" transform="translate(266.341 260.743)"/></g><g><path d="M57.2400016784668,0 C57.2400016784668,31.613000869750977 31.613000869750977,57.2400016784668 0,57.2400016784668 C-31.613000869750977,57.2400016784668 -57.2400016784668,31.613000869750977 -57.2400016784668,0 C-57.2400016784668,-31.613000869750977 -31.613000869750977,-57.2400016784668 0,-57.2400016784668 C31.613000869750977,-57.2400016784668 57.2400016784668,-31.613000869750977 57.2400016784668,0z" fill="#ffffff" transform="translate(269.356 760.111)"/><path d="M57.2400016784668,0 C57.2400016784668,31.613000869750977 31.613000869750977,57.2400016784668 0,57.2400016784668 C-31.613000869750977,57.2400016784668 -57.2400016784668,31.613000869750977 -57.2400016784668,0 C-57.2400016784668,-31.613000869750977 -31.613000869750977,-57.2400016784668 0,-57.2400016784668 C31.613000869750977,-57.2400016784668 57.2400016784668,-31.613000869750977 57.2400016784668,0z" fill="none" stroke="#231f1f" stroke-linecap="round" stroke-linejoin="round" stroke-width="2" transform="translate(269.356 760.111)"/></g><g><path d="M74.04299926757812,0 C74.04299926757812,40.893001556396484 40.891998291015625,74.04299926757812 -0.0010000000474974513,74.04299926757812 C-40.893001556396484,74.04299926757812 -74.04299926757812,40.893001556396484 -74.04299926757812,0 C-74.04299926757812,-40.893001556396484 -40.893001556396484,-74.04299926757812 -0.0010000000474974513,-74.04299926757812 C40.891998291015625,-74.04299926757812 74.04299926757812,-40.893001556396484 74.04299926757812,0z" fill="#ffffff" transform="translate(528.25 831.981)"/><path d="M74.04299926757812,0 C74.04299926757812,40.893001556396484 40.891998291015625,74.04299926757812 -0.0010000000474974513,74.04299926757812 C-40.893001556396484,74.04299926757812 -74.04299926757812,40.893001556396484 -74.04299926757812,0 C-74.04299926757812,-40.893001556396484 -40.893001556396484,-74.04299926757812 -0.0010000000474974513,-74.04299926757812 C40.891998291015625,-74.04299926757812 74.04299926757812,-40.893001556396484 74.04299926757812,0z" fill="none" stroke="#231f1f" stroke-linecap="round" stroke-linejoin="round" stroke-width="2" transform="translate(528.25 831.981)"/></g></g><g display="block"><g><path d="M51.55799865722656,38.266998291015625 C51.55799865722656,38.266998291015625 -51.55799865722656,38.266998291015625 -51.55799865722656,38.266998291015625 C-51.55799865722656,38.266998291015625 -51.55799865722656,-38.266998291015625 -51.55799865722656,-38.266998291015625 C-51.55799865722656,-38.266998291015625 51.55799865722656,-38.266998291015625 51.55799865722656,-38.266998291015625 C51.55799865722656,-38.266998291015625 51.55799865722656,38.266998291015625 51.55799865722656,38.266998291015625z" fill="#231f1f" transform="translate(525.93 160.06)"/><path d="M51.55799865722656,38.266998291015625 C51.55799865722656,38.266998291015625 -51.55799865722656,38.266998291015625 -51.55799865722656,38.266998291015625 C-51.55799865722656,38.266998291015625 -51.55799865722656,-38.266998291015625 -51.55799865722656,-38.266998291015625 C-51.55799865722656,-38.266998291015625 51.55799865722656,-38.266998291015625 51.55799865722656,-38.266998291015625 C51.55799865722656,-38.266998291015625 51.55799865722656,38.266998291015625 51.55799865722656,38.266998291015625z" fill="none" stroke="#231f1f" stroke-linecap="round" stroke-linejoin="round" stroke-width="2" transform="translate(525.93 160.06)"/></g></g><g display="block"><g><path d="M51.55799865722656,38.266998291015625 C51.55799865722656,38.266998291015625 -51.55799865722656,38.266998291015625 -51.55799865722656,38.266998291015625 C-51.55799865722656,38.266998291015625 -51.55799865722656,-38.266998291015625 -51.55799865722656,-38.266998291015625 C-51.55799865722656,-38.266998291015625 51.55799865722656,-38.266998291015625 51.55799865722656,-38.266998291015625 C51.55799865722656,-38.266998291015625 51.55799865722656,38.266998291015625 51.55799865722656,38.266998291015625z" fill="#ffffff" transform="translate(530.568 162.772)"/><path d="M51.55799865722656,38.266998291015625 C51.55799865722656,38.266998291015625 -51.55799865722656,38.266998291015625 -51.55799865722656,38.266998291015625 C-51.55799865722656,38.266998291015625 -51.55799865722656,-38.266998291015625 -51.55799865722656,-38.266998291015625 C-51.55799865722656,-38.266998291015625 51.55799865722656,-38.266998291015625 51.55799865722656,-38.266998291015625 C51.55799865722656,-38.266998291015625 51.55799865722656,38.266998291015625 51.55799865722656,38.266998291015625z" fill="none" stroke="#231f1f" stroke-linecap="round" stroke-linejoin="round" stroke-width="2" transform="translate(530.568 162.772)"/></g><g><path d="M-51.55799865722656,-19.134000778198242 C-51.55799865722656,-19.134000778198242 0,19.134000778198242 0,19.134000778198242 C0,19.134000778198242 51.55799865722656,-19.134000778198242 51.55799865722656,-19.134000778198242 C51.55799865722656,-19.134000778198242 -51.55799865722656,-19.134000778198242 -51.55799865722656,-19.134000778198242z" fill="#0097b2" transform="translate(530.569 143.637)"/><path d="M-51.55799865722656,-19.134000778198242 C-51.55799865722656,-19.134000778198242 0,19.134000778198242 0,19.134000778198242 C0,19.134000778198242 51.55799865722656,-19.134000778198242 51.55799865722656,-19.134000778198242 C51.55799865722656,-19.134000778198242 -51.55799865722656,-19.134000778198242 -51.55799865722656,-19.134000778198242z" fill="none" stroke="#231f1f" stroke-linecap="round" stroke-linejoin="round" stroke-width="2" transform="translate(530.569 143.637)"/></g></g><g display="block"><g><path d="M12.881999969482422,41.28799819946289 C12.881999969482422,41.28799819946289 -12.881999969482422,41.28799819946289 -12.881999969482422,41.28799819946289 C-12.881999969482422,41.28799819946289 -12.855000495910645,-7.789152145385742 -12.855000495910645,-7.789152145385742 C-12.855000495910645,-7.789152145385742 12.9089994430542,-7.789152145385742 12.9089994430542,-7.789152145385742 C12.9089994430542,-7.789152145385742 12.881999969482422,41.28799819946289 12.881999969482422,41.28799819946289z" fill="#0097b2" transform="translate(132.918 497.48)"/><path d="M12.881999969482422,41.28799819946289 C12.881999969482422,41.28799819946289 -12.881999969482422,41.28799819946289 -12.881999969482422,41.28799819946289 C-12.881999969482422,41.28799819946289 -12.855000495910645,-7.789152145385742 -12.855000495910645,-7.789152145385742 C-12.855000495910645,-7.789152145385742 12.9089994430542,-7.789152145385742 12.9089994430542,-7.789152145385742 C12.9089994430542,-7.789152145385742 12.881999969482422,41.28799819946289 12.881999969482422,41.28799819946289z" fill="none" stroke="#231f1f" stroke-linecap="round" stroke-linejoin="round" stroke-width="2" transform="translate(132.918 497.48)"/></g><g><path d="M12.881999969482422,32.369998931884766 C12.881999969482422,32.369998931884766 -12.881999969482422,32.369998931884766 -12.881999969482422,32.369998931884766 C-12.881999969482422,32.369998931884766 -12.871000289916992,-49.119422912597656 -12.871000289916992,-49.119422912597656 C-12.871000289916992,-49.119422912597656 12.892999649047852,-49.119422912597656 12.892999649047852,-49.119422912597656 C12.892999649047852,-49.119422912597656 12.881999969482422,32.369998931884766 12.881999969482422,32.369998931884766z" fill="#d9d9d9" transform="translate(166.866 506.398)"/><path d="M12.881999969482422,32.369998931884766 C12.881999969482422,32.369998931884766 -12.881999969482422,32.369998931884766 -12.881999969482422,32.369998931884766 C-12.881999969482422,32.369998931884766 -12.871000289916992,-49.119422912597656 -12.871000289916992,-49.119422912597656 C-12.871000289916992,-49.119422912597656 12.892999649047852,-49.119422912597656 12.892999649047852,-49.119422912597656 C12.892999649047852,-49.119422912597656 12.881999969482422,32.369998931884766 12.881999969482422,32.369998931884766z" fill="none" stroke="#231f1f" stroke-linecap="round" stroke-linejoin="round" stroke-width="2" transform="translate(166.866 506.398)"/></g><g><path d="M12.881999969482422,20.643999099731445 C12.881999969482422,20.643999099731445 -12.881999969482422,20.643999099731445 -12.881999969482422,20.643999099731445 C-12.881999969482422,20.643999099731445 -12.871000289916992,-12.144291877746582 -12.871000289916992,-12.144291877746582 C-12.871000289916992,-12.144291877746582 12.892999649047852,-12.144291877746582 12.892999649047852,-12.144291877746582 C12.892999649047852,-12.144291877746582 12.881999969482422,20.643999099731445 12.881999969482422,20.643999099731445z" fill="#0097b2" transform="translate(200.814 518.124)"/><path d="M12.881999969482422,20.643999099731445 C12.881999969482422,20.643999099731445 -12.881999969482422,20.643999099731445 -12.881999969482422,20.643999099731445 C-12.881999969482422,20.643999099731445 -12.871000289916992,-12.144291877746582 -12.871000289916992,-12.144291877746582 C-12.871000289916992,-12.144291877746582 12.892999649047852,-12.144291877746582 12.892999649047852,-12.144291877746582 C12.892999649047852,-12.144291877746582 12.881999969482422,20.643999099731445 12.881999969482422,20.643999099731445z" fill="none" stroke="#231f1f" stroke-linecap="round" stroke-linejoin="round" stroke-width="2" transform="translate(200.814 518.124)"/></g></g><g display="block"><g><path d="M46.11600112915039,10.965999603271484 C46.11600112915039,10.965999603271484 46.11600112915039,-10.965999603271484 46.11600112915039,-10.965999603271484 C46.11600112915039,-10.965999603271484 34.4739990234375,-10.965999603271484 34.4739990234375,-10.965999603271484 C33.85100173950195,-12.928000450134277 33.06399917602539,-14.819000244140625 32.12900161743164,-16.621000289916992 C32.12900161743164,-16.621000289916992 40.3650016784668,-24.854999542236328 40.3650016784668,-24.854999542236328 C40.3650016784668,-24.854999542236328 24.857999801635742,-40.362998962402344 24.857999801635742,-40.362998962402344 C24.857999801635742,-40.362998962402344 16.621999740600586,-32.125999450683594 16.621999740600586,-32.125999450683594 C14.819999694824219,-33.064998626708984 12.930000305175781,-33.854000091552734 10.96399974822998,-34.47700119018555 C10.96399974822998,-34.47700119018555 10.96399974822998,-46.11800003051758 10.96399974822998,-46.11800003051758 C10.96399974822998,-46.11800003051758 -10.96399974822998,-46.11800003051758 -10.96399974822998,-46.11800003051758 C-10.96399974822998,-46.11800003051758 -10.96399974822998,-34.47700119018555 -10.96399974822998,-34.47700119018555 C-12.930000305175781,-33.854000091552734 -14.821000099182129,-33.064998626708984 -16.62299919128418,-32.125999450683594 C-16.62299919128418,-32.125999450683594 -24.857999801635742,-40.362998962402344 -24.857999801635742,-40.362998962402344 C-24.857999801635742,-40.362998962402344 -40.3650016784668,-24.854999542236328 -40.3650016784668,-24.854999542236328 C-40.3650016784668,-24.854999542236328 -32.12900161743164,-16.621000289916992 -32.12900161743164,-16.621000289916992 C-33.06399917602539,-14.819000244140625 -33.85200119018555,-12.928000450134277 -34.474998474121094,-10.965999603271484 C-34.474998474121094,-10.965999603271484 -46.11600112915039,-10.965999603271484 -46.11600112915039,-10.965999603271484 C-46.11600112915039,-10.965999603271484 -46.11600112915039,10.965999603271484 -46.11600112915039,10.965999603271484 C-46.11600112915039,10.965999603271484 -34.474998474121094,10.965999603271484 -34.474998474121094,10.965999603271484 C-33.85200119018555,12.928000450134277 -33.06800079345703,14.817999839782715 -32.12900161743164,16.6200008392334 C-32.12900161743164,16.6200008392334 -40.3650016784668,24.856000900268555 -40.3650016784668,24.856000900268555 C-40.3650016784668,24.856000900268555 -24.857999801635742,40.362998962402344 -24.857999801635742,40.362998962402344 C-24.857999801635742,40.362998962402344 -16.62299919128418,32.12699890136719 -16.62299919128418,32.12699890136719 C-14.821000099182129,33.066001892089844 -12.930000305175781,33.85300064086914 -10.96399974822998,34.47600173950195 C-10.96399974822998,34.47600173950195 -10.96399974822998,46.11800003051758 -10.96399974822998,46.11800003051758 C-10.96399974822998,46.11800003051758 10.96399974822998,46.11800003051758 10.96399974822998,46.11800003051758 C10.96399974822998,46.11800003051758 10.96399974822998,34.47600173950195 10.96399974822998,34.47600173950195 C12.930000305175781,33.85300064086914 14.819999694824219,33.066001892089844 16.621999740600586,32.12699890136719 C16.621999740600586,32.12699890136719 24.857999801635742,40.362998962402344 24.857999801635742,40.362998962402344 C24.857999801635742,40.362998962402344 40.3650016784668,24.856000900268555 40.3650016784668,24.856000900268555 C40.3650016784668,24.856000900268555 32.12900161743164,16.6200008392334 32.12900161743164,16.6200008392334 C33.06800079345703,14.817999839782715 33.85100173950195,12.928000450134277 34.4739990234375,10.965999603271484 C34.4739990234375,10.965999603271484 46.11600112915039,10.965999603271484 46.11600112915039,10.965999603271484z M16.374000549316406,0.8650000095367432 C16.172000885009766,4.743000030517578 14.621999740600586,8.258000373840332 12.189000129699707,10.965999603271484 C11.800999641418457,11.395000457763672 11.392999649047852,11.803999900817871 10.96399974822998,12.190999984741211 C8.255999565124512,14.625 4.736999988555908,16.170000076293945 0.8629999756813049,16.371999740600586 C0.5770000219345093,16.385000228881836 0.28999999165534973,16.39299964904785 0,16.39299964904785 C-0.29100000858306885,16.39299964904785 -0.5770000219345093,16.385000228881836 -0.8629999756813049,16.371999740600586 C-4.736999988555908,16.170000076293945 -8.256999969482422,14.625 -10.96399974822998,12.190999984741211 C-11.392999649047852,11.803999900817871 -11.802000045776367,11.395000457763672 -12.189000129699707,10.965999603271484 C-14.623000144958496,8.258000373840332 -16.172000885009766,4.743000030517578 -16.374000549316406,0.8650000095367432 C-16.386999130249023,0.5789999961853027 -16.395000457763672,0.2919999957084656 -16.395000457763672,0.0020000000949949026 C-16.395000457763672,-0.289000004529953 -16.386999130249023,-0.574999988079071 -16.374000549316406,-0.8650000095367432 C-16.172000885009766,-4.743000030517578 -14.623000144958496,-8.258999824523926 -12.189000129699707,-10.965999603271484 C-11.802000045776367,-11.395000457763672 -11.392999649047852,-11.803999900817871 -10.96399974822998,-12.190999984741211 C-8.256999969482422,-14.625 -4.736999988555908,-16.170000076293945 -0.8629999756813049,-16.371999740600586 C-0.5770000219345093,-16.385000228881836 -0.29100000858306885,-16.39299964904785 0,-16.39299964904785 C0.28999999165534973,-16.39299964904785 0.5770000219345093,-16.385000228881836 0.8629999756813049,-16.371999740600586 C4.736999988555908,-16.170000076293945 8.255999565124512,-14.625 10.96399974822998,-12.190999984741211 C11.392999649047852,-11.803999900817871 11.800999641418457,-11.395000457763672 12.189000129699707,-10.965999603271484 C14.621999740600586,-8.258999824523926 16.172000885009766,-4.743000030517578 16.374000549316406,-0.8650000095367432 C16.386999130249023,-0.574999988079071 16.395000457763672,-0.289000004529953 16.395000457763672,0.0020000000949949026 C16.395000457763672,0.2919999957084656 16.386999130249023,0.5789999961853027 16.374000549316406,0.8650000095367432z" fill="#d9d9d9" transform="rotate(126.054 67.146 197.504)"/><path d="M46.11600112915039,10.965999603271484 C46.11600112915039,10.965999603271484 46.11600112915039,-10.965999603271484 46.11600112915039,-10.965999603271484 C46.11600112915039,-10.965999603271484 34.4739990234375,-10.965999603271484 34.4739990234375,-10.965999603271484 C33.85100173950195,-12.928000450134277 33.06399917602539,-14.819000244140625 32.12900161743164,-16.621000289916992 C32.12900161743164,-16.621000289916992 40.3650016784668,-24.854999542236328 40.3650016784668,-24.854999542236328 C40.3650016784668,-24.854999542236328 24.857999801635742,-40.362998962402344 24.857999801635742,-40.362998962402344 C24.857999801635742,-40.362998962402344 16.621999740600586,-32.125999450683594 16.621999740600586,-32.125999450683594 C14.819999694824219,-33.064998626708984 12.930000305175781,-33.854000091552734 10.96399974822998,-34.47700119018555 C10.96399974822998,-34.47700119018555 10.96399974822998,-46.11800003051758 10.96399974822998,-46.11800003051758 C10.96399974822998,-46.11800003051758 -10.96399974822998,-46.11800003051758 -10.96399974822998,-46.11800003051758 C-10.96399974822998,-46.11800003051758 -10.96399974822998,-34.47700119018555 -10.96399974822998,-34.47700119018555 C-12.930000305175781,-33.854000091552734 -14.821000099182129,-33.064998626708984 -16.62299919128418,-32.125999450683594 C-16.62299919128418,-32.125999450683594 -24.857999801635742,-40.362998962402344 -24.857999801635742,-40.362998962402344 C-24.857999801635742,-40.362998962402344 -40.3650016784668,-24.854999542236328 -40.3650016784668,-24.854999542236328 C-40.3650016784668,-24.854999542236328 -32.12900161743164,-16.621000289916992 -32.12900161743164,-16.621000289916992 C-33.06399917602539,-14.819000244140625 -33.85200119018555,-12.928000450134277 -34.474998474121094,-10.965999603271484 C-34.474998474121094,-10.965999603271484 -46.11600112915039,-10.965999603271484 -46.11600112915039,-10.965999603271484 C-46.11600112915039,-10.965999603271484 -46.11600112915039,10.965999603271484 -46.11600112915039,10.965999603271484 C-46.11600112915039,10.965999603271484 -34.474998474121094,10.965999603271484 -34.474998474121094,10.965999603271484 C-33.85200119018555,12.928000450134277 -33.06800079345703,14.817999839782715 -32.12900161743164,16.6200008392334 C-32.12900161743164,16.6200008392334 -40.3650016784668,24.856000900268555 -40.3650016784668,24.856000900268555 C-40.3650016784668,24.856000900268555 -24.857999801635742,40.362998962402344 -24.857999801635742,40.362998962402344 C-24.857999801635742,40.362998962402344 -16.62299919128418,32.12699890136719 -16.62299919128418,32.12699890136719 C-14.821000099182129,33.066001892089844 -12.930000305175781,33.85300064086914 -10.96399974822998,34.47600173950195 C-10.96399974822998,34.47600173950195 -10.96399974822998,46.11800003051758 -10.96399974822998,46.11800003051758 C-10.96399974822998,46.11800003051758 10.96399974822998,46.11800003051758 10.96399974822998,46.11800003051758 C10.96399974822998,46.11800003051758 10.96399974822998,34.47600173950195 10.96399974822998,34.47600173950195 C12.930000305175781,33.85300064086914 14.819999694824219,33.066001892089844 16.621999740600586,32.12699890136719 C16.621999740600586,32.12699890136719 24.857999801635742,40.362998962402344 24.857999801635742,40.362998962402344 C24.857999801635742,40.362998962402344 40.3650016784668,24.856000900268555 40.3650016784668,24.856000900268555 C40.3650016784668,24.856000900268555 32.12900161743164,16.6200008392334 32.12900161743164,16.6200008392334 C33.06800079345703,14.817999839782715 33.85100173950195,12.928000450134277 34.4739990234375,10.965999603271484 C34.4739990234375,10.965999603271484 46.11600112915039,10.965999603271484 46.11600112915039,10.965999603271484z M16.374000549316406,0.8650000095367432 C16.172000885009766,4.743000030517578 14.621999740600586,8.258000373840332 12.189000129699707,10.965999603271484 C11.800999641418457,11.395000457763672 11.392999649047852,11.803999900817871 10.96399974822998,12.190999984741211 C8.255999565124512,14.625 4.736999988555908,16.170000076293945 0.8629999756813049,16.371999740600586 C0.5770000219345093,16.385000228881836 0.28999999165534973,16.39299964904785 0,16.39299964904785 C-0.29100000858306885,16.39299964904785 -0.5770000219345093,16.385000228881836 -0.8629999756813049,16.371999740600586 C-4.736999988555908,16.170000076293945 -8.256999969482422,14.625 -10.96399974822998,12.190999984741211 C-11.392999649047852,11.803999900817871 -11.802000045776367,11.395000457763672 -12.189000129699707,10.965999603271484 C-14.623000144958496,8.258000373840332 -16.172000885009766,4.743000030517578 -16.374000549316406,0.8650000095367432 C-16.386999130249023,0.5789999961853027 -16.395000457763672,0.2919999957084656 -16.395000457763672,0.0020000000949949026 C-16.395000457763672,-0.289000004529953 -16.386999130249023,-0.574999988079071 -16.374000549316406,-0.8650000095367432 C-16.172000885009766,-4.743000030517578 -14.623000144958496,-8.258999824523926 -12.189000129699707,-10.965999603271484 C-11.802000045776367,-11.395000457763672 -11.392999649047852,-11.803999900817871 -10.96399974822998,-12.190999984741211 C-8.256999969482422,-14.625 -4.736999988555908,-16.170000076293945 -0.8629999756813049,-16.371999740600586 C-0.5770000219345093,-16.385000228881836 -0.29100000858306885,-16.39299964904785 0,-16.39299964904785 C0.28999999165534973,-16.39299964904785 0.5770000219345093,-16.385000228881836 0.8629999756813049,-16.371999740600586 C4.736999988555908,-16.170000076293945 8.255999565124512,-14.625 10.96399974822998,-12.190999984741211 C11.392999649047852,-11.803999900817871 11.800999641418457,-11.395000457763672 12.189000129699707,-10.965999603271484 C14.621999740600586,-8.258999824523926 16.172000885009766,-4.743000030517578 16.374000549316406,-0.8650000095367432 C16.386999130249023,-0.574999988079071 16.395000457763672,-0.289000004529953 16.395000457763672,0.0020000000949949026 C16.395000457763672,0.2919999957084656 16.386999130249023,0.5789999961853027 16.374000549316406,0.8650000095367432z" fill="none" stroke="#231f1f" stroke-linecap="round" stroke-linejoin="round" stroke-width="2" transform="rotate(126.054 67.146 197.504)"/></g></g><g display="block"><g><path d="M-25.94499969482422,56.744998931884766 C-25.94499969482422,56.744998931884766 -25.94499969482422,49.652000427246094 -25.94499969482422,49.652000427246094 C-25.94499969482422,27.0049991607666 -24.172000885009766,12.72599983215332 -20.625999450683594,6.813000202178955 C-17.07900047302246,0.9049999713897705 -7.7179999351501465,-7.6529998779296875 7.4670000076293945,-18.851999282836914 C15.428000450134277,-24.700000762939453 20.966999053955078,-30.145000457763672 24.077999114990234,-35.185001373291016 C27.187000274658203,-40.224998474121094 28.7450008392334,-46.47800064086914 28.7450008392334,-53.944000244140625 C28.7450008392334,-63.1510009765625 25.81999969482422,-70.39900207519531 19.972000122070312,-75.69000244140625 C14.119999885559082,-80.97699737548828 7.0269999504089355,-83.62300109863281 -1.3070000410079956,-83.62300109863281 C-23.33300018310547,-83.62300109863281 -35.71799850463867,-68.06500244140625 -38.452999114990234,-36.95800018310547 C-38.452999114990234,-36.95800018310547 -89.59600067138672,-44.237998962402344 -89.59600067138672,-44.237998962402344 C-85.74099731445312,-72.35900115966797 -75.44100189208984,-93.63800048828125 -58.70399856567383,-108.07499694824219 C-41.970001220703125,-122.50900268554688 -21.5310001373291,-129.72799682617188 2.611999988555908,-129.72799682617188 C27.250999450683594,-129.72799682617188 47.90599822998047,-122.63500213623047 64.58300018310547,-108.4489974975586 C81.25800323486328,-94.26200103759766 89.59600067138672,-76.27799987792969 89.59600067138672,-54.50400161743164 C89.59600067138672,-27.499000549316406 75.71800231933594,-4.914000034332275 47.97100067138672,13.253000259399414 C35.900001525878906,21.2189998626709 28.58799934387207,27.43899917602539 26.038999557495117,31.91900062561035 C23.488000869750977,36.39899826049805 22.21299934387207,44.676998138427734 22.21299934387207,56.744998931884766 C22.21299934387207,56.744998931884766 -25.94499969482422,56.744998931884766 -25.94499969482422,56.744998931884766z M31.545000076293945,129.72799682617188 C31.545000076293945,129.72799682617188 -27.06599998474121,129.72799682617188 -27.06599998474121,129.72799682617188 C-27.06599998474121,129.72799682617188 -27.06599998474121,73.35700225830078 -27.06599998474121,73.35700225830078 C-27.06599998474121,73.35700225830078 31.545000076293945,73.35700225830078 31.545000076293945,73.35700225830078 C31.545000076293945,73.35700225830078 31.545000076293945,129.72799682617188 31.545000076293945,129.72799682617188z" fill="#0097b2" transform="translate(521.628 511.758)"/><path d="M-25.94499969482422,56.744998931884766 C-25.94499969482422,56.744998931884766 -25.94499969482422,49.652000427246094 -25.94499969482422,49.652000427246094 C-25.94499969482422,27.0049991607666 -24.172000885009766,12.72599983215332 -20.625999450683594,6.813000202178955 C-17.07900047302246,0.9049999713897705 -7.7179999351501465,-7.6529998779296875 7.4670000076293945,-18.851999282836914 C15.428000450134277,-24.700000762939453 20.966999053955078,-30.145000457763672 24.077999114990234,-35.185001373291016 C27.187000274658203,-40.224998474121094 28.7450008392334,-46.47800064086914 28.7450008392334,-53.944000244140625 C28.7450008392334,-63.1510009765625 25.81999969482422,-70.39900207519531 19.972000122070312,-75.69000244140625 C14.119999885559082,-80.97699737548828 7.0269999504089355,-83.62300109863281 -1.3070000410079956,-83.62300109863281 C-23.33300018310547,-83.62300109863281 -35.71799850463867,-68.06500244140625 -38.452999114990234,-36.95800018310547 C-38.452999114990234,-36.95800018310547 -89.59600067138672,-44.237998962402344 -89.59600067138672,-44.237998962402344 C-85.74099731445312,-72.35900115966797 -75.44100189208984,-93.63800048828125 -58.70399856567383,-108.07499694824219 C-41.970001220703125,-122.50900268554688 -21.5310001373291,-129.72799682617188 2.611999988555908,-129.72799682617188 C27.250999450683594,-129.72799682617188 47.90599822998047,-122.63500213623047 64.58300018310547,-108.4489974975586 C81.25800323486328,-94.26200103759766 89.59600067138672,-76.27799987792969 89.59600067138672,-54.50400161743164 C89.59600067138672,-27.499000549316406 75.71800231933594,-4.914000034332275 47.97100067138672,13.253000259399414 C35.900001525878906,21.2189998626709 28.58799934387207,27.43899917602539 26.038999557495117,31.91900062561035 C23.488000869750977,36.39899826049805 22.21299934387207,44.676998138427734 22.21299934387207,56.744998931884766 C22.21299934387207,56.744998931884766 -25.94499969482422,56.744998931884766 -25.94499969482422,56.744998931884766z M31.545000076293945,129.72799682617188 C31.545000076293945,129.72799682617188 -27.06599998474121,129.72799682617188 -27.06599998474121,129.72799682617188 C-27.06599998474121,129.72799682617188 -27.06599998474121,73.35700225830078 -27.06599998474121,73.35700225830078 C-27.06599998474121,73.35700225830078 31.545000076293945,73.35700225830078 31.545000076293945,73.35700225830078 C31.545000076293945,73.35700225830078 31.545000076293945,129.72799682617188 31.545000076293945,129.72799682617188z" fill="none" stroke="#231f1f" stroke-linecap="round" stroke-linejoin="round" stroke-width="2" transform="translate(521.628 511.758)"/></g></g><g display="block"><g><path d="M36.72999954223633,-0.009999999776482582 C36.72999954223633,20.280000686645508 20.280000686645508,36.720001220703125 0,36.720001220703125 C-20.280000686645508,36.720001220703125 -36.72999954223633,20.280000686645508 -36.72999954223633,-0.009999999776482582 C-36.72999954223633,-20 -20.75,-36.25 -0.8799999952316284,-36.720001220703125 C-0.8799999952316284,-36.720001220703125 -0.8799999952316284,-0.009999999776482582 -0.8799999952316284,-0.009999999776482582 C-0.8799999952316284,-0.009999999776482582 36.72999954223633,-0.009999999776482582 36.72999954223633,-0.009999999776482582z" fill="#0097b2" transform="translate(269.356 761.905)"/><path d="M36.72999954223633,-0.009999999776482582 C36.72999954223633,20.280000686645508 20.280000686645508,36.720001220703125 0,36.720001220703125 C-20.280000686645508,36.720001220703125 -36.72999954223633,20.280000686645508 -36.72999954223633,-0.009999999776482582 C-36.72999954223633,-20 -20.75,-36.25 -0.8799999952316284,-36.720001220703125 C-0.8799999952316284,-36.720001220703125 -0.8799999952316284,-0.009999999776482582 -0.8799999952316284,-0.009999999776482582 C-0.8799999952316284,-0.009999999776482582 36.72999954223633,-0.009999999776482582 36.72999954223633,-0.009999999776482582z" fill="none" stroke="#231f1f" stroke-linecap="round" stroke-linejoin="round" stroke-width="2" transform="translate(269.356 761.905)"/></g></g><g display="block"><g><path d="M-18.804000854492188,-18.36400032043457 C-18.804000854492188,-18.36400032043457 -18.804000854492188,18.36400032043457 -18.804000854492188,18.36400032043457 C-18.804000854492188,18.36400032043457 18.804000854492188,18.36400032043457 18.804000854492188,18.36400032043457 C18.41200065612793,-2.5390000343322754 3.2809998989105225,-17.867000579833984 -18.804000854492188,-18.36400032043457z" fill="#231f1f" transform="translate(287.843 743.057)"/><path d="M-18.804000854492188,-18.36400032043457 C-18.804000854492188,-18.36400032043457 -18.804000854492188,18.36400032043457 -18.804000854492188,18.36400032043457 C-18.804000854492188,18.36400032043457 18.804000854492188,18.36400032043457 18.804000854492188,18.36400032043457 C18.41200065612793,-2.5390000343322754 3.2809998989105225,-17.867000579833984 -18.804000854492188,-18.36400032043457z" fill="none" stroke="#231f1f" stroke-linecap="round" stroke-linejoin="round" stroke-width="2" transform="translate(287.843 743.057)"/></g></g><g display="block"><g><path d="M431.1600036621094,13.786999702453613 C431.1600036621094,13.786999702453613 -431.15899658203125,13.786999702453613 -431.15899658203125,13.786999702453613 C-431.15899658203125,13.786999702453613 -431.15899658203125,-13.786999702453613 -431.15899658203125,-13.786999702453613 C-431.15899658203125,-13.786999702453613 431.1600036621094,-13.786999702453613 431.1600036621094,-13.786999702453613 C431.1600036621094,-13.786999702453613 431.1600036621094,13.786999702453613 431.1600036621094,13.786999702453613z" fill="#231f1f" transform="translate(528.25 951.096)"/><path d="M431.1600036621094,13.786999702453613 C431.1600036621094,13.786999702453613 -431.15899658203125,13.786999702453613 -431.15899658203125,13.786999702453613 C-431.15899658203125,13.786999702453613 -431.15899658203125,-13.786999702453613 -431.15899658203125,-13.786999702453613 C-431.15899658203125,-13.786999702453613 431.1600036621094,-13.786999702453613 431.1600036621094,-13.786999702453613 C431.1600036621094,-13.786999702453613 431.1600036621094,13.786999702453613 431.1600036621094,13.786999702453613z" fill="none" stroke="#231f1f" stroke-linecap="round" stroke-linejoin="round" stroke-width="2" transform="translate(528.25 951.096)"/></g></g><g display="block"><g><path d="M54.79899978637695,-39.268001556396484 C54.79899978637695,-39.268001556396484 41.73400115966797,131.3520050048828 41.73400115966797,131.3520050048828 C36.902000427246094,181.2469940185547 -44.15399932861328,173.3979949951172 -39.321998596191406,123.50299835205078 C-54.79899978637695,81.55999755859375 -38.85499954223633,-66.64600372314453 -23.27199935913086,-181.2469940185547 C20.033000946044922,-158.29800415039062 46.619998931884766,-111.76599884033203 54.79899978637695,-39.268001556396484z" fill="#ffffff" transform="rotate(5 -8001.252 8304.345)"/><path d="M54.79899978637695,-39.268001556396484 C54.79899978637695,-39.268001556396484 41.73400115966797,131.3520050048828 41.73400115966797,131.3520050048828 C36.902000427246094,181.2469940185547 -44.15399932861328,173.3979949951172 -39.321998596191406,123.50299835205078 C-54.79899978637695,81.55999755859375 -38.85499954223633,-66.64600372314453 -23.27199935913086,-181.2469940185547 C20.033000946044922,-158.29800415039062 46.619998931884766,-111.76599884033203 54.79899978637695,-39.268001556396484z" fill="none" stroke="#231f1f" stroke-linecap="round" stroke-linejoin="round" stroke-width="2" transform="rotate(5 -8001.252 8304.345)"/></g><g><path d="M-159.69200134277344,-153.60299682617188 C-129.8070068359375,-171.9720001220703 -100.55599975585938,-187.9669952392578 -72.56099700927734,-199.25100708007812 C-72.56099700927734,-199.25100708007812 58.86800003051758,-209.95599365234375 58.86800003051758,-209.95599365234375 C93.73200225830078,-196.70799255371094 127.60399627685547,-180.60899353027344 159.6929931640625,-159.40199279785156 C159.6929931640625,-159.40199279785156 92.48400115966797,197.45199584960938 92.48400115966797,197.45199584960938 C4.296999931335449,209.19200134277344 -66.31500244140625,209.95599365234375 -110.9229965209961,194.47799682617188 C-110.9229965209961,194.47799682617188 -159.69200134277344,-153.60299682617188 -159.69200134277344,-153.60299682617188z" fill="#0097b2" transform="rotate(5 -7752.494 9882.463)"/><path d="M-159.69200134277344,-153.60299682617188 C-129.8070068359375,-171.9720001220703 -100.55599975585938,-187.9669952392578 -72.56099700927734,-199.25100708007812 C-72.56099700927734,-199.25100708007812 58.86800003051758,-209.95599365234375 58.86800003051758,-209.95599365234375 C93.73200225830078,-196.70799255371094 127.60399627685547,-180.60899353027344 159.6929931640625,-159.40199279785156 C159.6929931640625,-159.40199279785156 92.48400115966797,197.45199584960938 92.48400115966797,197.45199584960938 C4.296999931335449,209.19200134277344 -66.31500244140625,209.95599365234375 -110.9229965209961,194.47799682617188 C-110.9229965209961,194.47799682617188 -159.69200134277344,-153.60299682617188 -159.69200134277344,-153.60299682617188z" fill="none" stroke="#231f1f" stroke-linecap="round" stroke-linejoin="round" stroke-width="2" transform="rotate(5 -7752.494 9882.463)"/></g><g><path d="M44.268001556396484,-67.54000091552734 C44.268001556396484,-67.54000091552734 40.03900146484375,-6.506999969482422 40.03900146484375,-6.506999969482422 C40.03900146484375,-6.506999969482422 -20.625999450683594,67.54000091552734 -20.625999450683594,67.54000091552734 C-20.625999450683594,67.54000091552734 -44.268001556396484,23.378999710083008 -44.268001556396484,23.378999710083008 C-44.268001556396484,23.378999710083008 -44.268001556396484,-35.50199890136719 -44.268001556396484,-35.50199890136719 C-44.268001556396484,-35.50199890136719 44.268001556396484,-67.54000091552734 44.268001556396484,-67.54000091552734z" fill="#d9d9d9" transform="rotate(5 -5218.713 9968.72)"/><path d="M44.268001556396484,-67.54000091552734 C44.268001556396484,-67.54000091552734 40.03900146484375,-6.506999969482422 40.03900146484375,-6.506999969482422 C40.03900146484375,-6.506999969482422 -20.625999450683594,67.54000091552734 -20.625999450683594,67.54000091552734 C-20.625999450683594,67.54000091552734 -44.268001556396484,23.378999710083008 -44.268001556396484,23.378999710083008 C-44.268001556396484,23.378999710083008 -44.268001556396484,-35.50199890136719 -44.268001556396484,-35.50199890136719 C-44.268001556396484,-35.50199890136719 44.268001556396484,-67.54000091552734 44.268001556396484,-67.54000091552734z" fill="none" stroke="#231f1f" stroke-miterlimit="10" stroke-width="2" transform="rotate(5 -5218.713 9968.72)"/></g><g><path d="M-42.43199920654297,3.5190000534057617 C-42.43199920654297,3.5190000534057617 -42.43199920654297,24.38800048828125 -42.43199920654297,24.38800048828125 C2.880000114440918,25.259000778198242 25.469999313354492,5.933000087738037 42.43199920654297,-25.257999420166016 C13.723999977111816,-4.918000221252441 -12.513999938964844,4 -42.43199920654297,3.5190000534057617z" fill="#231f1f" transform="rotate(5 -4851.924 9984.721)"/><path d="M-42.43199920654297,3.5190000534057617 C-42.43199920654297,3.5190000534057617 -42.43199920654297,24.38800048828125 -42.43199920654297,24.38800048828125 C2.880000114440918,25.259000778198242 25.469999313354492,5.933000087738037 42.43199920654297,-25.257999420166016 C13.723999977111816,-4.918000221252441 -12.513999938964844,4 -42.43199920654297,3.5190000534057617z" fill="none" stroke="#231f1f" stroke-linecap="round" stroke-linejoin="round" stroke-width="2" transform="rotate(5 -4851.924 9984.721)"/></g><g><path d="M-49.43899917602539,39.10499954223633 C-49.43899917602539,39.10499954223633 -18.06599998474121,21.70800018310547 -18.06599998474121,21.70800018310547 C-18.06599998474121,21.70800018310547 -0.5199999809265137,46.6879997253418 -0.5199999809265137,46.6879997253418 C-0.5199999809265137,46.6879997253418 49.43899917602539,-20.22100067138672 49.43899917602539,-20.22100067138672 C49.43899917602539,-20.22100067138672 24.756999969482422,-46.6879997253418 24.756999969482422,-46.6879997253418 C24.756999969482422,-46.6879997253418 12.039999961853027,-46.6879997253418 12.039999961853027,-46.6879997253418 C12.039999961853027,-46.6879997253418 11.22599983215332,-34.94200134277344 11.22599983215332,-34.94200134277344 C11.22599983215332,-34.94200134277344 -49.43899917602539,39.10499954223633 -49.43899917602539,39.10499954223633z" fill="#ffffff" transform="rotate(5 -5558.77 10284.483)"/><path d="M-49.43899917602539,39.10499954223633 C-49.43899917602539,39.10499954223633 -18.06599998474121,21.70800018310547 -18.06599998474121,21.70800018310547 C-18.06599998474121,21.70800018310547 -0.5199999809265137,46.6879997253418 -0.5199999809265137,46.6879997253418 C-0.5199999809265137,46.6879997253418 49.43899917602539,-20.22100067138672 49.43899917602539,-20.22100067138672 C49.43899917602539,-20.22100067138672 24.756999969482422,-46.6879997253418 24.756999969482422,-46.6879997253418 C24.756999969482422,-46.6879997253418 12.039999961853027,-46.6879997253418 12.039999961853027,-46.6879997253418 C12.039999961853027,-46.6879997253418 11.22599983215332,-34.94200134277344 11.22599983215332,-34.94200134277344 C11.22599983215332,-34.94200134277344 -49.43899917602539,39.10499954223633 -49.43899917602539,39.10499954223633z" fill="none" stroke="#231f1f" stroke-linecap="round" stroke-linejoin="round" stroke-width="2" transform="rotate(5 -5558.77 10284.483)"/></g><g><path d="M24.9060001373291,27.506999969482422 C24.9060001373291,27.506999969482422 3.0989999771118164,13.680000305175781 3.0989999771118164,13.680000305175781 C3.0989999771118164,13.680000305175781 -21.038999557495117,38.06399917602539 -21.038999557495117,38.06399917602539 C-21.038999557495117,38.06399917602539 -24.9060001373291,-18.139999389648438 -24.9060001373291,-18.139999389648438 C-24.9060001373291,-18.139999389648438 1.2630000114440918,-38.06399917602539 1.2630000114440918,-38.06399917602539 C1.2630000114440918,-38.06399917602539 1.2630000114440918,-16.652999877929688 1.2630000114440918,-16.652999877929688 C1.2630000114440918,-16.652999877929688 24.9060001373291,27.506999969482422 24.9060001373291,27.506999969482422z" fill="#ffffff" transform="rotate(5 -5654.428 9427.232)"/><path d="M24.9060001373291,27.506999969482422 C24.9060001373291,27.506999969482422 3.0989999771118164,13.680000305175781 3.0989999771118164,13.680000305175781 C3.0989999771118164,13.680000305175781 -21.038999557495117,38.06399917602539 -21.038999557495117,38.06399917602539 C-21.038999557495117,38.06399917602539 -24.9060001373291,-18.139999389648438 -24.9060001373291,-18.139999389648438 C-24.9060001373291,-18.139999389648438 1.2630000114440918,-38.06399917602539 1.2630000114440918,-38.06399917602539 C1.2630000114440918,-38.06399917602539 1.2630000114440918,-16.652999877929688 1.2630000114440918,-16.652999877929688 C1.2630000114440918,-16.652999877929688 24.9060001373291,27.506999969482422 24.9060001373291,27.506999969482422z" fill="none" stroke="#231f1f" stroke-linecap="round" stroke-linejoin="round" stroke-width="2" transform="rotate(5 -5654.428 9427.232)"/></g><g><path d="M-102.74400329589844,-17.76799964904785 C-102.74400329589844,-17.76799964904785 -102.74400329589844,17.768999099731445 -102.74400329589844,17.768999099731445 C-40.290000915527344,36.78499984741211 28.950000762939453,34.439998626708984 102.74400329589844,17.768999099731445 C102.74400329589844,17.768999099731445 100.66300201416016,-14.793999671936035 100.66300201416016,-14.793999671936035 C21.69499969482422,-2.75 -47.29999923706055,-2.3499999046325684 -102.74400329589844,-17.76799964904785z" fill="#231f1f" transform="rotate(5 -10179.239 9682.68)"/></g><g><path d="M-102.74400329589844,-27.275999069213867 C-102.74400329589844,-27.275999069213867 -102.74400329589844,8.260000228881836 -102.74400329589844,8.260000228881836 C-40.290000915527344,27.275999069213867 28.950000762939453,24.930999755859375 102.74400329589844,8.260000228881836 C102.74400329589844,8.260000228881836 100.66300201416016,-24.302000045776367 100.66300201416016,-24.302000045776367 C21.69499969482422,-12.258000373840332 -47.29999923706055,-11.857999801635742 -102.74400329589844,-27.275999069213867z" fill="none" stroke="#231f1f" stroke-linecap="round" stroke-linejoin="round" stroke-width="2" transform="rotate(5 -10288.133 9677.925)"/></g><g><path d="M-26.59000015258789,-44.90399932861328 C-26.59000015258789,-44.90399932861328 -2.0910000801086426,48.472999572753906 -2.0910000801086426,48.472999572753906 C-2.0910000801086426,48.472999572753906 26.59000015258789,-48.472999572753906 26.59000015258789,-48.472999572753906 C26.59000015258789,-48.472999572753906 -4.783999919891357,-31.076000213623047 -4.783999919891357,-31.076000213623047 C-4.783999919891357,-31.076000213623047 -26.59000015258789,-44.90399932861328 -26.59000015258789,-44.90399932861328z" fill="#ffffff" transform="rotate(5 -6340.227 9737.965)"/><path d="M-26.59000015258789,-44.90399932861328 C-26.59000015258789,-44.90399932861328 -2.0910000801086426,48.472999572753906 -2.0910000801086426,48.472999572753906 C-2.0910000801086426,48.472999572753906 26.59000015258789,-48.472999572753906 26.59000015258789,-48.472999572753906 C26.59000015258789,-48.472999572753906 -4.783999919891357,-31.076000213623047 -4.783999919891357,-31.076000213623047 C-4.783999919891357,-31.076000213623047 -26.59000015258789,-44.90399932861328 -26.59000015258789,-44.90399932861328z" fill="none" stroke="#231f1f" stroke-linecap="round" stroke-linejoin="round" stroke-width="2" transform="rotate(5 -6340.227 9737.965)"/></g><g><path d="M-15.086000442504883,-50.81800079345703 C-15.086000442504883,-50.81800079345703 15.086000442504883,50.81800079345703 15.086000442504883,50.81800079345703" fill="#ffffff" transform="rotate(5 -6607.364 9475.798)"/><path d="M-15.086000442504883,-50.81800079345703 C-15.086000442504883,-50.81800079345703 15.086000442504883,50.81800079345703 15.086000442504883,50.81800079345703" fill="none" stroke="#231f1f" stroke-linecap="round" stroke-linejoin="round" stroke-width="2" transform="rotate(5 -6607.364 9475.798)"/></g><g><path d="M11.777999877929688,-38.54399871826172 C11.777999877929688,-38.54399871826172 -11.777999877929688,38.54399871826172 -11.777999877929688,38.54399871826172" fill="#ffffff" transform="rotate(5 -6558.213 9993.49)"/><path d="M11.777999877929688,-38.54399871826172 C11.777999877929688,-38.54399871826172 -11.777999877929688,38.54399871826172 -11.777999877929688,38.54399871826172" fill="none" stroke="#231f1f" stroke-linecap="round" stroke-linejoin="round" stroke-width="2" transform="rotate(5 -6558.213 9993.49)"/></g><g><path d="M-65.19400024414062,-5.5980000495910645 C-24.586000442504883,5.51800012588501 19.209999084472656,5.5980000495910645 65.19400024414062,-1.8919999599456787" fill="none" stroke="#231f1f" stroke-linecap="round" stroke-linejoin="round" stroke-width="2" transform="rotate(5 -9788.326 9351.925)"/></g><g><path d="M-48.62200164794922,-40.47600173950195 C-48.62200164794922,-40.47600173950195 -39.902000427246094,130.4199981689453 -39.902000427246094,130.4199981689453 C-36.340999603271484,180.4219970703125 35.97999954223633,156.9669952392578 44.944000244140625,120.13600158691406 C48.62200164794922,7.814000129699707 41.558998107910156,-88.24400329589844 33.0359992980957,-180.4219970703125 C-10.83899974822998,-158.58200073242188 -38.60100173950195,-112.74199676513672 -48.62200164794922,-40.47600173950195z" fill="#ffffff" transform="rotate(5 -8061.613 11328.4)"/><path d="M-48.62200164794922,-40.47600173950195 C-48.62200164794922,-40.47600173950195 -39.902000427246094,130.4199981689453 -39.902000427246094,130.4199981689453 C-36.340999603271484,180.4219970703125 35.97999954223633,156.9669952392578 44.944000244140625,120.13600158691406 C48.62200164794922,7.814000129699707 41.558998107910156,-88.24400329589844 33.0359992980957,-180.4219970703125 C-10.83899974822998,-158.58200073242188 -38.60100173950195,-112.74199676513672 -48.62200164794922,-40.47600173950195z" fill="none" stroke="#231f1f" stroke-linecap="round" stroke-linejoin="round" stroke-width="2" transform="rotate(5 -8061.613 11328.4)"/></g><g><path d="M-133.7689971923828,-20.51799964904785 C-66.45800018310547,-49.04800033569336 1.7300000190734863,-70.6780014038086 54.678001403808594,-78.0199966430664 C74.63999938964844,-80.78700256347656 94.97100067138672,-78.73100280761719 114.03800201416016,-72.2040023803711 C114.03800201416016,-72.2040023803711 130.72300720214844,-66.49299621582031 130.72300720214844,-66.49299621582031 C130.72300720214844,-66.49299621582031 136.88099670410156,-25.392000198364258 136.88099670410156,-25.392000198364258 C136.88099670410156,-25.392000198364258 88.75900268554688,-27.82900047302246 88.75900268554688,-27.82900047302246 C88.75900268554688,-27.82900047302246 -72.88099670410156,70.84400177001953 -72.88099670410156,70.84400177001953 C-112.04299926757812,80.78700256347656 -136.88099670410156,63.15399932861328 -133.7689971923828,-20.51799964904785z" fill="#ffffff" transform="rotate(5 -9104.032 9267.511)"/><path d="M-133.7689971923828,-20.51799964904785 C-66.45800018310547,-49.04800033569336 1.7300000190734863,-70.6780014038086 54.678001403808594,-78.0199966430664 C74.63999938964844,-80.78700256347656 94.97100067138672,-78.73100280761719 114.03800201416016,-72.2040023803711 C114.03800201416016,-72.2040023803711 130.72300720214844,-66.49299621582031 130.72300720214844,-66.49299621582031 C130.72300720214844,-66.49299621582031 136.88099670410156,-25.392000198364258 136.88099670410156,-25.392000198364258 C136.88099670410156,-25.392000198364258 88.75900268554688,-27.82900047302246 88.75900268554688,-27.82900047302246 C88.75900268554688,-27.82900047302246 -72.88099670410156,70.84400177001953 -72.88099670410156,70.84400177001953 C-112.04299926757812,80.78700256347656 -136.88099670410156,63.15399932861328 -133.7689971923828,-20.51799964904785z" fill="none" stroke="#231f1f" stroke-linecap="round" stroke-linejoin="round" stroke-width="2" transform="rotate(5 -9104.032 9267.511)"/></g><g><path d="M149.75599670410156,-18.44700050354004 C100.11499786376953,-39.487998962402344 68.08100128173828,-61.316001892089844 25.694000244140625,-71.65499877929688 C-16.65399932861328,-81.98500061035156 -73.56700134277344,-87.10099792480469 -114.9229965209961,-73.32599639892578 C-114.9229965209961,-73.32599639892578 -154.68600463867188,-61.970001220703125 -154.68600463867188,-61.970001220703125 C-154.68600463867188,-61.970001220703125 -150.46299743652344,-31.832000732421875 -150.46299743652344,-31.832000732421875 C-150.46299743652344,-31.832000732421875 -99.1709976196289,-25.305999755859375 -99.1709976196289,-25.305999755859375 C-79.53600311279297,-22.80699920654297 -60.65299987792969,-16.183000564575195 -43.75899887084961,-5.870999813079834 C-43.75899887084961,-5.870999813079834 92.25399780273438,77.15799713134766 92.25399780273438,77.15799713134766 C131.41600036621094,87.10099792480469 154.68699645996094,70.86599731445312 149.75599670410156,-18.44700050354004z" fill="#ffffff" transform="rotate(5 -9034.554 10094.69)"/><path d="M149.75599670410156,-18.44700050354004 C100.11499786376953,-39.487998962402344 68.08100128173828,-61.316001892089844 25.694000244140625,-71.65499877929688 C-16.65399932861328,-81.98500061035156 -73.56700134277344,-87.10099792480469 -114.9229965209961,-73.32599639892578 C-114.9229965209961,-73.32599639892578 -154.68600463867188,-61.970001220703125 -154.68600463867188,-61.970001220703125 C-154.68600463867188,-61.970001220703125 -150.46299743652344,-31.832000732421875 -150.46299743652344,-31.832000732421875 C-150.46299743652344,-31.832000732421875 -99.1709976196289,-25.305999755859375 -99.1709976196289,-25.305999755859375 C-79.53600311279297,-22.80699920654297 -60.65299987792969,-16.183000564575195 -43.75899887084961,-5.870999813079834 C-43.75899887084961,-5.870999813079834 92.25399780273438,77.15799713134766 92.25399780273438,77.15799713134766 C131.41600036621094,87.10099792480469 154.68699645996094,70.86599731445312 149.75599670410156,-18.44700050354004z" fill="none" stroke="#231f1f" stroke-linecap="round" stroke-linejoin="round" stroke-width="2" transform="rotate(5 -9034.554 10094.69)"/></g><g><path d="M-29.92099952697754,-37.323001861572266 C-29.92099952697754,-37.323001861572266 -26.67300033569336,23.33300018310547 -26.67300033569336,23.33300018310547 C-26.67300033569336,23.33300018310547 29.92099952697754,37.323001861572266 29.92099952697754,37.323001861572266 C29.906999588012695,15.583999633789062 29.159000396728516,-6.980000019073486 27.7549991607666,-30.283000946044922 C27.7549991607666,-30.283000946044922 -29.92099952697754,-37.323001861572266 -29.92099952697754,-37.323001861572266z" fill="#ffffff" transform="rotate(5 -8762.53 11476.07)"/></g><g><path d="M-14.711999893188477,-4.73799991607666 C-14.711999893188477,-4.73799991607666 -15.072999954223633,16.06599998474121 -15.072999954223633,16.06599998474121 C-15.072999954223633,16.06599998474121 15.072999954223633,6.4079999923706055 15.072999954223633,6.4079999923706055 C15.072999954223633,6.4079999923706055 12.862000465393066,-16.06599998474121 12.862000465393066,-16.06599998474121 C12.862000465393066,-16.06599998474121 -14.711999893188477,-4.73799991607666 -14.711999893188477,-4.73799991607666z" fill="#ffffff" transform="rotate(5 -8664.432 7936.12)"/></g></g><g display="block"><g><path d="M161.5,379 C161.5,379 158.5,407.75 158.5,407.75 C158.5,407.75 226.5,410.25 225.25,409 C224,407.75 226.75,386.75 226.75,386.75 C226.75,386.75 161.5,379 161.5,379z" fill="#231f1f" transform="translate(539.997 540.003)"/></g></g><g display="block"><g><path d="M359.75,-114.75 C359.75,-114.75 268,-101.5 268,-101.5 C268,-101.5 266.25,-90.25 266.25,-90.25 C266.25,-90.25 266,-73 266,-73 C266,-73 331.25,-74.75 347.5,-93 C363.75,-111.25 357,-101.75 357,-101.75 C357,-101.75 359.75,-114.75 359.75,-114.75z" fill="#231f1f" transform="translate(539.998 540.002)"/></g></g><g display="block"><g><path d="M-6.001999855041504,-35.38800048828125 C-10.204000473022461,-7.290999889373779 -4.677000045776367,14.531000137329102 2.3450000286102295,35.38800048828125 C2.3450000286102295,35.38800048828125 10.204000473022461,-34.49599838256836 10.204000473022461,-34.49599838256836 C10.204000473022461,-34.49599838256836 -6.001999855041504,-35.38800048828125 -6.001999855041504,-35.38800048828125z" fill="#231f1f" transform="rotate(11 -1143.61 4186.019)"/><path d="M-6.001999855041504,-35.38800048828125 C-10.204000473022461,-7.290999889373779 -4.677000045776367,14.531000137329102 2.3450000286102295,35.38800048828125 C2.3450000286102295,35.38800048828125 10.204000473022461,-34.49599838256836 10.204000473022461,-34.49599838256836 C10.204000473022461,-34.49599838256836 -6.001999855041504,-35.38800048828125 -6.001999855041504,-35.38800048828125z" fill="none" stroke="#231f1f" stroke-linecap="round" stroke-linejoin="round" stroke-width="2" transform="rotate(11 -1143.61 4186.019)"/></g><g><path d="M73.4729995727539,-15.741999626159668 C73.4729995727539,-15.741999626159668 72.80400085449219,28.642000198364258 72.80400085449219,28.642000198364258 C72.80400085449219,28.642000198364258 69.01200103759766,81.9469985961914 69.01200103759766,81.9469985961914 C33.77199935913086,106.70800018310547 -3.50600004196167,119.2300033569336 -44.474998474121094,109.58399963378906 C-53.24599838256836,107.51899719238281 -60.290000915527344,100.98400115966797 -63.05099868774414,92.40599822998047 C-75.21800231933594,54.59700012207031 -76.59500122070312,2.203000068664551 -67.48400115966797,-64.36299896240234 C-36.0369987487793,-119.2300033569336 33.54999923706055,-115.88400268554688 76.59500122070312,-70.60800170898438 C76.59500122070312,-70.60800170898438 73.4729995727539,-15.741999626159668 73.4729995727539,-15.741999626159668z" fill="#d9d9d9" transform="rotate(11 -1369.011 4561.267)"/><path d="M73.4729995727539,-15.741999626159668 C73.4729995727539,-15.741999626159668 72.80400085449219,28.642000198364258 72.80400085449219,28.642000198364258 C72.80400085449219,28.642000198364258 69.01200103759766,81.9469985961914 69.01200103759766,81.9469985961914 C33.77199935913086,106.70800018310547 -3.50600004196167,119.2300033569336 -44.474998474121094,109.58399963378906 C-53.24599838256836,107.51899719238281 -60.290000915527344,100.98400115966797 -63.05099868774414,92.40599822998047 C-75.21800231933594,54.59700012207031 -76.59500122070312,2.203000068664551 -67.48400115966797,-64.36299896240234 C-36.0369987487793,-119.2300033569336 33.54999923706055,-115.88400268554688 76.59500122070312,-70.60800170898438 C76.59500122070312,-70.60800170898438 73.4729995727539,-15.741999626159668 73.4729995727539,-15.741999626159668z" fill="none" stroke="#231f1f" stroke-miterlimit="10" stroke-width="2" transform="rotate(11 -1369.011 4561.267)"/></g><g><path d="M-15.88599967956543,-15.913999557495117 C-7.26200008392334,-30.187999725341797 16.677000045776367,-20.81999969482422 9.390999794006348,3.11899995803833 C1.628999948501587,23.12700080871582 -7.388000011444092,28.267000198364258 -16.677000045776367,30.187999725341797 C-16.677000045776367,30.187999725341797 -15.88599967956543,-15.913999557495117 -15.88599967956543,-15.913999557495117z" fill="#d9d9d9" transform="rotate(11 -1414.579 5025.214)"/><path d="M-15.88599967956543,-15.913999557495117 C-7.26200008392334,-30.187999725341797 16.677000045776367,-20.81999969482422 9.390999794006348,3.11899995803833 C1.628999948501587,23.12700080871582 -7.388000011444092,28.267000198364258 -16.677000045776367,30.187999725341797 C-16.677000045776367,30.187999725341797 -15.88599967956543,-15.913999557495117 -15.88599967956543,-15.913999557495117z" fill="none" stroke="#231f1f" stroke-miterlimit="10" stroke-width="2" transform="rotate(11 -1414.579 5025.214)"/></g><g><path d="M3.3459999561309814,-33.63999938964844 C2.1489999294281006,-8.829000473022461 -3.2130000591278076,12.20300006866455 -12.711999893188477,29.479000091552734 C-3.552999973297119,32.76599884033203 4.869999885559082,33.63999938964844 12.711999893188477,32.60200119018555" fill="none" stroke="#231f1f" stroke-linecap="round" stroke-linejoin="round" stroke-width="2" transform="rotate(11 -1418.758 4346.569)"/></g><g><path d="M66.13800048828125,75.18699645996094 C53.33700180053711,67.27799987792969 44.7859992980957,49.6609992980957 41.21900177001953,20.66200065612793 C19.20199966430664,29.673999786376953 2.3320000171661377,25.20599937438965 -10.03600025177002,8.944000244140625 C-25.733999252319336,23.600000381469727 -46.5,29.263999938964844 -70.81500244140625,28.628999710083008 C-91.07499694824219,30.545000076293945 -99.30799865722656,20.68199920654297 -96.53199768066406,0.039000000804662704 C-87.65899658203125,-40.99399948120117 -62.7239990234375,-44.75400161743164 -32.21699905395508,-35.58300018310547 C-19.673999786376953,-75.18699645996094 29.58799934387207,-68.39099884033203 32.553001403808594,-35.58300018310547 C63.77299880981445,-42.1870002746582 80.94999694824219,-35.46699905395508 72.23600006103516,-4.179999828338623 C92.47599792480469,-2.1989998817443848 99.30799865722656,8.722999572753906 93.37699890136719,28.160999298095703 C93.37699890136719,28.160999298095703 85.72799682617188,70.4990005493164 85.72799682617188,70.4990005493164 C79.0770034790039,68.9489974975586 72.56099700927734,70.8550033569336 66.13800048828125,75.18699645996094z" fill="#231f1f" transform="rotate(11 -900.17 4641.467)"/><path d="M66.13800048828125,75.18699645996094 C53.33700180053711,67.27799987792969 44.7859992980957,49.6609992980957 41.21900177001953,20.66200065612793 C19.20199966430664,29.673999786376953 2.3320000171661377,25.20599937438965 -10.03600025177002,8.944000244140625 C-25.733999252319336,23.600000381469727 -46.5,29.263999938964844 -70.81500244140625,28.628999710083008 C-91.07499694824219,30.545000076293945 -99.30799865722656,20.68199920654297 -96.53199768066406,0.039000000804662704 C-87.65899658203125,-40.99399948120117 -62.7239990234375,-44.75400161743164 -32.21699905395508,-35.58300018310547 C-19.673999786376953,-75.18699645996094 29.58799934387207,-68.39099884033203 32.553001403808594,-35.58300018310547 C63.77299880981445,-42.1870002746582 80.94999694824219,-35.46699905395508 72.23600006103516,-4.179999828338623 C92.47599792480469,-2.1989998817443848 99.30799865722656,8.722999572753906 93.37699890136719,28.160999298095703 C93.37699890136719,28.160999298095703 85.72799682617188,70.4990005493164 85.72799682617188,70.4990005493164 C79.0770034790039,68.9489974975586 72.56099700927734,70.8550033569336 66.13800048828125,75.18699645996094z" fill="none" stroke="#231f1f" stroke-linecap="round" stroke-linejoin="round" stroke-width="2" transform="rotate(11 -900.17 4641.467)"/></g></g><g display="block"><g><path d="M-12.267000198364258,-4.311999797821045 C-1.4129999876022339,-5.947999954223633 6.764999866485596,-2.5280001163482666 12.267000198364258,5.947999954223633" fill="none" stroke="#231f20" stroke-linecap="round" stroke-linejoin="round" stroke-width="2" transform="rotate(11 -1269.291 4659.04)"/></g><g><path d="M-9.70199966430664,3.2990000247955322 C-4.769000053405762,-0.9620000123977661 1.2100000381469727,-3.2990000247955322 9.70199966430664,-1.0119999647140503" fill="none" stroke="#231f1f" stroke-linecap="round" stroke-linejoin="round" stroke-width="2" transform="rotate(11 -1155.525 4296.91)"/></g><g><path d="M4.980999946594238,0 C4.980999946594238,5.460999965667725 2.750999927520752,9.887999534606934 0,9.887999534606934 C-2.750999927520752,9.887999534606934 -4.980999946594238,5.460999965667725 -4.980999946594238,0 C-4.980999946594238,-5.460999965667725 -2.750999927520752,-9.887999534606934 0,-9.887999534606934 C2.750999927520752,-9.887999534606934 4.980999946594238,-5.460999965667725 4.980999946594238,0z" fill="#231f1f" transform="rotate(11 -1383.906 4621.898)"/><path d="M4.980999946594238,0 C4.980999946594238,5.460999965667725 2.750999927520752,9.887999534606934 0,9.887999534606934 C-2.750999927520752,9.887999534606934 -4.980999946594238,5.460999965667725 -4.980999946594238,0 C-4.980999946594238,-5.460999965667725 -2.750999927520752,-9.887999534606934 0,-9.887999534606934 C2.750999927520752,-9.887999534606934 4.980999946594238,-5.460999965667725 4.980999946594238,0z" fill="none" stroke="#231f1f" stroke-linecap="round" stroke-linejoin="round" stroke-width="2" transform="rotate(11 -1383.906 4621.898)"/></g><g><path d="M3.940999984741211,0 C3.940999984741211,4.438000202178955 2.177000045776367,8.03600025177002 0.0010000000474974513,8.03600025177002 C-2.174999952316284,8.03600025177002 -3.940999984741211,4.438000202178955 -3.940999984741211,0 C-3.940999984741211,-4.438000202178955 -2.174999952316284,-8.03600025177002 0.0010000000474974513,-8.03600025177002 C2.177000045776367,-8.03600025177002 3.940999984741211,-4.438000202178955 3.940999984741211,0z" fill="#231f1f" transform="rotate(11 -1319.264 4269.844)"/><path d="M3.940999984741211,0 C3.940999984741211,4.438000202178955 2.177000045776367,8.03600025177002 0.0010000000474974513,8.03600025177002 C-2.174999952316284,8.03600025177002 -3.940999984741211,4.438000202178955 -3.940999984741211,0 C-3.940999984741211,-4.438000202178955 -2.174999952316284,-8.03600025177002 0.0010000000474974513,-8.03600025177002 C2.177000045776367,-8.03600025177002 3.940999984741211,-4.438000202178955 3.940999984741211,0z" fill="none" stroke="#231f1f" stroke-linecap="round" stroke-linejoin="round" stroke-width="2" transform="rotate(11 -1319.264 4269.844)"/></g><g><path d="M-20.34000015258789,-1.5329999923706055 C-8.425000190734863,19.40399932861328 20.34000015258789,3.2339999675750732 17.106000900268555,-19.40399932861328 C5.461999893188477,-9.687000274658203 -6.9720001220703125,-3.5160000324249268 -20.34000015258789,-1.5329999923706055z" fill="#231f1f" transform="rotate(11 -1747.08 4511.521)"/><path d="M-20.34000015258789,-1.5329999923706055 C-8.425000190734863,19.40399932861328 20.34000015258789,3.2339999675750732 17.106000900268555,-19.40399932861328 C5.461999893188477,-9.687000274658203 -6.9720001220703125,-3.5160000324249268 -20.34000015258789,-1.5329999923706055z" fill="none" stroke="#231f1f" stroke-miterlimit="10" stroke-width="2" transform="rotate(11 -1747.08 4511.521)"/></g></g><g display="block"><g><path d="M13.454999923706055,0 C13.454999923706055,7.431000232696533 7.431000232696533,13.454000473022461 0.0010000000474974513,13.454000473022461 C-7.429999828338623,13.454000473022461 -13.454999923706055,7.431000232696533 -13.454999923706055,0 C-13.454999923706055,-7.431000232696533 -7.429999828338623,-13.454000473022461 0.0010000000474974513,-13.454000473022461 C7.431000232696533,-13.454000473022461 13.454999923706055,-7.431000232696533 13.454999923706055,0z" fill="#0097b2" transform="translate(492.632 819.138)"/><path d="M13.454999923706055,0 C13.454999923706055,7.431000232696533 7.431000232696533,13.454000473022461 0.0010000000474974513,13.454000473022461 C-7.429999828338623,13.454000473022461 -13.454999923706055,7.431000232696533 -13.454999923706055,0 C-13.454999923706055,-7.431000232696533 -7.429999828338623,-13.454000473022461 0.0010000000474974513,-13.454000473022461 C7.431000232696533,-13.454000473022461 13.454999923706055,-7.431000232696533 13.454999923706055,0z" fill="none" stroke="#231f1f" stroke-linecap="round" stroke-linejoin="round" stroke-width="2" transform="translate(492.632 819.138)"/></g><g><path d="M19.10099983215332,13.875 C19.10099983215332,13.875 -19.10099983215332,13.875 -19.10099983215332,13.875 C-19.10099983215332,13.875 -19.10099983215332,5.22599983215332 -19.10099983215332,5.22599983215332 C-19.10099983215332,-5.322999954223633 -10.54800033569336,-13.875 0.0010000000474974513,-13.875 C10.548999786376953,-13.875 19.10099983215332,-5.322999954223633 19.10099983215332,5.22599983215332 C19.10099983215332,5.22599983215332 19.10099983215332,13.875 19.10099983215332,13.875z" fill="#0097b2" transform="translate(492.632 848.629)"/><path d="M19.10099983215332,13.875 C19.10099983215332,13.875 -19.10099983215332,13.875 -19.10099983215332,13.875 C-19.10099983215332,13.875 -19.10099983215332,5.22599983215332 -19.10099983215332,5.22599983215332 C-19.10099983215332,-5.322999954223633 -10.54800033569336,-13.875 0.0010000000474974513,-13.875 C10.548999786376953,-13.875 19.10099983215332,-5.322999954223633 19.10099983215332,5.22599983215332 C19.10099983215332,5.22599983215332 19.10099983215332,13.875 19.10099983215332,13.875z" fill="none" stroke="#231f1f" stroke-linecap="round" stroke-linejoin="round" stroke-width="2" transform="translate(492.632 848.629)"/></g></g><g display="block"><g><path d="M13.454999923706055,0 C13.454999923706055,7.431000232696533 7.429999828338623,13.454000473022461 0,13.454000473022461 C-7.431000232696533,13.454000473022461 -13.454999923706055,7.431000232696533 -13.454999923706055,0 C-13.454999923706055,-7.431000232696533 -7.431000232696533,-13.454000473022461 0,-13.454000473022461 C7.429999828338623,-13.454000473022461 13.454999923706055,-7.431000232696533 13.454999923706055,0z" fill="#0097b2" transform="translate(563.864 819.138)"/><path d="M13.454999923706055,0 C13.454999923706055,7.431000232696533 7.429999828338623,13.454000473022461 0,13.454000473022461 C-7.431000232696533,13.454000473022461 -13.454999923706055,7.431000232696533 -13.454999923706055,0 C-13.454999923706055,-7.431000232696533 -7.431000232696533,-13.454000473022461 0,-13.454000473022461 C7.429999828338623,-13.454000473022461 13.454999923706055,-7.431000232696533 13.454999923706055,0z" fill="none" stroke="#231f1f" stroke-linecap="round" stroke-linejoin="round" stroke-width="2" transform="translate(563.864 819.138)"/></g><g><path d="M19.10099983215332,13.875 C19.10099983215332,13.875 -19.10099983215332,13.875 -19.10099983215332,13.875 C-19.10099983215332,13.875 -19.10099983215332,5.22599983215332 -19.10099983215332,5.22599983215332 C-19.10099983215332,-5.322999954223633 -10.548999786376953,-13.875 0,-13.875 C10.54800033569336,-13.875 19.10099983215332,-5.322999954223633 19.10099983215332,5.22599983215332 C19.10099983215332,5.22599983215332 19.10099983215332,13.875 19.10099983215332,13.875z" fill="#0097b2" transform="translate(563.864 848.629)"/><path d="M19.10099983215332,13.875 C19.10099983215332,13.875 -19.10099983215332,13.875 -19.10099983215332,13.875 C-19.10099983215332,13.875 -19.10099983215332,5.22599983215332 -19.10099983215332,5.22599983215332 C-19.10099983215332,-5.322999954223633 -10.548999786376953,-13.875 0,-13.875 C10.54800033569336,-13.875 19.10099983215332,-5.322999954223633 19.10099983215332,5.22599983215332 C19.10099983215332,5.22599983215332 19.10099983215332,13.875 19.10099983215332,13.875z" fill="none" stroke="#231f1f" stroke-linecap="round" stroke-linejoin="round" stroke-width="2" transform="translate(563.864 848.629)"/></g></g><g display="block"><g><path d="M17.54400062561035,0 C17.54400062561035,9.689000129699707 9.689000129699707,17.54400062561035 0,17.54400062561035 C-9.689000129699707,17.54400062561035 -17.54400062561035,9.689000129699707 -17.54400062561035,0 C-17.54400062561035,-9.689000129699707 -9.689000129699707,-17.54400062561035 0,-17.54400062561035 C9.689000129699707,-17.54400062561035 17.54400062561035,-9.689000129699707 17.54400062561035,0z" fill="#d9d9d9" transform="matrix(.81606 0 0 .81606 528.249 817.317)"/><path d="M17.54400062561035,0 C17.54400062561035,9.689000129699707 9.689000129699707,17.54400062561035 0,17.54400062561035 C-9.689000129699707,17.54400062561035 -17.54400062561035,9.689000129699707 -17.54400062561035,0 C-17.54400062561035,-9.689000129699707 -9.689000129699707,-17.54400062561035 0,-17.54400062561035 C9.689000129699707,-17.54400062561035 17.54400062561035,-9.689000129699707 17.54400062561035,0z" fill="none" stroke="#231f1f" stroke-linecap="round" stroke-linejoin="round" stroke-width="2" transform="matrix(.81606 0 0 .81606 528.249 817.317)"/></g><g><path d="M24.9060001373291,18.091999053955078 C24.9060001373291,18.091999053955078 -24.9060001373291,18.091999053955078 -24.9060001373291,18.091999053955078 C-24.9060001373291,18.091999053955078 -24.9060001373291,6.814000129699707 -24.9060001373291,6.814000129699707 C-24.9060001373291,-6.940999984741211 -13.755000114440918,-18.091999053955078 0,-18.091999053955078 C13.755000114440918,-18.091999053955078 24.9060001373291,-6.940999984741211 24.9060001373291,6.814000129699707 C24.9060001373291,6.814000129699707 24.9060001373291,18.091999053955078 24.9060001373291,18.091999053955078z" fill="#d9d9d9" transform="matrix(.81606 0 0 .81606 528.249 848.699)"/><path d="M24.9060001373291,18.091999053955078 C24.9060001373291,18.091999053955078 -24.9060001373291,18.091999053955078 -24.9060001373291,18.091999053955078 C-24.9060001373291,18.091999053955078 -24.9060001373291,6.814000129699707 -24.9060001373291,6.814000129699707 C-24.9060001373291,-6.940999984741211 -13.755000114440918,-18.091999053955078 0,-18.091999053955078 C13.755000114440918,-18.091999053955078 24.9060001373291,-6.940999984741211 24.9060001373291,6.814000129699707 C24.9060001373291,6.814000129699707 24.9060001373291,18.091999053955078 24.9060001373291,18.091999053955078z" fill="none" stroke="#231f1f" stroke-linecap="round" stroke-linejoin="round" stroke-width="2" transform="matrix(.81606 0 0 .81606 528.249 848.699)"/></g></g></g></svg>