<?xml version="1.0" encoding="UTF-8" standalone="no"?><svg xmlns="http://www.w3.org/2000/svg" xmlns:xlink="http://www.w3.org/1999/xlink" fill="#ffffff" height="510" preserveAspectRatio="xMidYMid meet" version="1" viewBox="1.0 1.0 510.0 510.0" width="510" zoomAndPan="magnify"><g><g id="change1_1"><path d="M93.929,218.071c9.278,9.274,23.511-4.774,14.143-14.143L75.143,171l32.929-32.929c3.905-3.905,3.905-10.237,0-14.143 c-3.906-3.904-10.236-3.904-14.143,0l-40,40c-3.905,3.905-3.905,10.237,0,14.143L93.929,218.071z"/><path d="M208.071,218.071l40-40c3.905-3.905,3.905-10.237,0-14.143l-40-40c-3.906-3.904-10.236-3.904-14.143,0 c-3.905,3.905-3.905,10.237,0,14.143L226.857,171l-32.929,32.929C184.555,213.302,198.819,227.319,208.071,218.071z"/><path d="M141.008,221.002c4.48,0,8.558-3.033,9.693-7.576l20-80c1.34-5.358-1.918-10.788-7.275-12.127 c-5.36-1.34-10.787,1.919-12.127,7.275l-20,80C129.723,214.877,134.492,221.002,141.008,221.002z"/><path d="M251,281c-5.523,0-10,4.478-10,10s4.477,10,10,10h200c5.522,0,10-4.478,10-10s-4.478-10-10-10h-10v-80 c0-5.523-4.478-10-10-10s-10,4.477-10,10v80h-20V181c0-5.523-4.478-10-10-10s-10,4.477-10,10v100h-20v-40c0-5.523-4.478-10-10-10 s-10,4.477-10,10v40h-20v-60c0-5.523-4.478-10-10-10s-10,4.477-10,10v60h-20v-30c0-5.523-4.478-10-10-10s-10,4.477-10,10v30H251z"/><path d="M271,71h180c5.522,0,10-4.478,10-10s-4.478-10-10-10H271c-5.522,0-10,4.478-10,10S265.478,71,271,71z"/><path d="M271,111h120c5.522,0,10-4.478,10-10s-4.478-10-10-10H271c-5.522,0-10,4.478-10,10S265.478,111,271,111z"/><circle cx="451" cy="381" r="10"/><path d="M411,371h-10c-5.522,0-10,4.478-10,10s4.478,10,10,10h10c5.522,0,10-4.478,10-10S416.522,371,411,371z"/><path d="M361,371h-10c-5.522,0-10,4.478-10,10s4.478,10,10,10h10c5.522,0,10-4.478,10-10S366.522,371,361,371z"/><path d="M456.08,1H55.92C25.637,1,1,25.637,1,55.92v320.16C1,406.363,25.637,431,55.92,431H206v20h-10c-27.57,0-50,22.43-50,50 c0,5.522,4.477,10,10,10h200c5.522,0,10-4.478,10-10c0-27.57-22.43-50-50-50h-10v-20h150.08c30.283,0,54.92-24.637,54.92-54.92 V55.92C511,25.637,486.363,1,456.08,1z M55.92,21h400.16C475.335,21,491,36.665,491,55.92V331H21V55.92 C21,36.665,36.665,21,55.92,21z M344.286,491H167.714c4.127-11.641,15.249-20,28.286-20h120 C329.037,471,340.159,479.359,344.286,491z M286,451h-60v-20h60V451z M456.08,411H55.92C36.665,411,21,395.335,21,376.08V351h470 v25.08C491,395.335,475.335,411,456.08,411z"/></g></g></svg>