<?xml version="1.0" encoding="UTF-8" standalone="no"?>
<svg
   version="1.1"
   id="Layer_1"
   x="0px"
   y="0px"
   width="100%"
   viewBox="0 0 500 500"
   enable-background="new 0 0 500 500"
   xml:space="preserve"
   sodipodi:docname="QS-Logo.svg"
   inkscape:version="1.3.2 (091e20e, 2023-11-25)"
   xmlns:inkscape="http://www.inkscape.org/namespaces/inkscape"
   xmlns:sodipodi="http://sodipodi.sourceforge.net/DTD/sodipodi-0.dtd"
   xmlns="http://www.w3.org/2000/svg"
   xmlns:svg="http://www.w3.org/2000/svg"><defs
   id="defs22" /><sodipodi:namedview
   id="namedview22"
   pagecolor="#ffffff"
   bordercolor="#000000"
   borderopacity="0.25"
   inkscape:showpageshadow="2"
   inkscape:pageopacity="0.0"
   inkscape:pagecheckerboard="0"
   inkscape:deskcolor="#d1d1d1"
   inkscape:zoom="0.472"
   inkscape:cx="248.94068"
   inkscape:cy="250"
   inkscape:window-width="1312"
   inkscape:window-height="449"
   inkscape:window-x="0"
   inkscape:window-y="25"
   inkscape:window-maximized="0"
   inkscape:current-layer="Layer_1" />

<path
   fill="#39B7FF"
   opacity="1.000000"
   stroke="none"
   d=" M282.103394,228.130661   C300.039581,210.333954 317.976562,192.538055 335.910919,174.739487   C338.035767,172.630722 340.333557,170.661987 342.230255,168.363525   C350.011932,158.933594 359.730042,154.337280 372.746674,156.236847   C379.751404,158.515701 384.881714,162.169601 389.562500,166.907654   C410.756042,188.360657 432.175751,209.589966 453.460602,230.953094   C465.289978,242.825989 465.272369,260.132080 453.480438,271.946655   C434.295502,291.168518 415.211304,310.494263 395.792480,329.477386   C389.676514,335.456177 382.624634,340.477570 376.001099,345.937164   C362.219482,349.243652 351.794647,344.110107 342.181763,334.213959   C322.375580,313.824219 301.870422,294.113464 281.201660,273.715881   C279.735443,272.100281 278.720398,270.892090 277.301178,269.202820   C274.230255,272.413818 271.622955,275.140015 268.735657,278.044403   C267.251617,279.542603 266.047577,280.862640 264.526550,282.066681   C258.362030,276.031403 252.514542,270.112122 246.865784,263.908661   C248.388214,262.155182 249.711945,260.685852 251.338852,259.060211   C254.245178,256.244446 256.848328,253.584961 259.680939,250.719482   C265.645905,244.720413 271.381378,238.927338 277.402863,232.982727   C279.160400,231.264343 280.631897,229.697510 282.103394,228.130661  M372.607513,316.738525   C392.746552,296.629761 412.890839,276.526276 433.020660,256.408264   C437.514191,251.917389 437.510529,250.736557 433.024139,246.244324   C413.500977,226.695602 393.978729,207.145844 374.402985,187.649887   C373.174713,186.426636 371.493073,185.658630 369.985352,183.968521   C366.895966,179.836288 364.375702,182.151810 361.855347,184.674026   C341.366486,205.178345 320.862061,225.667114 300.391693,246.189896   C295.869476,250.723709 295.934174,251.545334 300.644836,256.257904   C321.019562,276.640778 341.398712,297.019257 361.778839,317.396729   C366.569519,322.186798 367.218292,322.166168 372.607513,316.738525  z"
   id="path2" />
<path
   fill="#FFDE5A"
   opacity="1.000000"
   stroke="none"
   d=" M220.005081,227.969788   C222.609055,225.591812 225.213028,223.213852 228.417603,220.847992   C234.664017,226.311264 240.309830,231.762451 245.932404,237.538864   C244.663101,239.348694 243.428406,240.842972 242.168640,242.315842   C239.449722,245.494705 236.717941,248.662567 233.638962,251.867767   C227.471207,257.930695 221.655914,263.960815 215.509338,270.035645   C213.780930,271.223450 212.274582,272.257080 211.002930,273.525909   C189.793533,294.688354 168.649368,315.916321 147.388565,337.026886   C144.167542,340.225159 140.434570,342.907806 136.938400,345.828979   C133.138580,346.173492 129.323105,346.924011 125.542198,346.778229   C117.585205,346.471466 110.819534,343.229584 105.158257,337.545654   C83.424408,315.724823 61.599796,293.994354 39.878113,272.161469   C26.929411,259.146484 26.972389,242.738922 39.899628,229.782639   C60.947052,208.687881 82.172562,187.768250 103.023323,166.481262   C110.093414,159.263245 117.808418,154.803711 128.141953,155.760880   C129.433807,155.880524 130.773514,155.483475 132.604080,155.654312   C142.033798,159.664673 148.783295,166.131699 155.439392,172.870361   C173.867538,191.527084 192.482117,209.999695 211.028076,228.539993   C215.704269,233.214752 215.827591,233.198669 220.005081,227.969788  M130.699356,184.259018   C126.089157,179.774445 125.753387,179.766617 121.127380,184.391373   C100.774406,204.738739 80.428894,225.093613 60.081745,245.446823   C59.376148,246.152649 58.639843,246.833633 57.990219,247.588470   C55.845509,250.080597 55.601143,252.215515 58.262661,254.855057   C79.641853,276.057617 100.879623,297.402679 122.198822,318.665863   C125.797066,322.254669 127.322090,321.919067 130.688080,317.159546   C131.114700,316.906189 131.616501,316.728271 131.957153,316.388672   C152.477585,295.933044 172.963058,275.442383 193.515472,255.019012   C196.749878,251.804916 195.682068,249.364822 192.904572,246.602478   C172.243027,226.053650 151.645065,205.440887 130.699356,184.259018  z"
   id="path3" />
<path
   fill="#FF3232"
   opacity="1.000000"
   stroke="none"
   d=" M215.840607,269.990936   C221.655914,263.960815 227.471207,257.930695 233.794235,252.148163   C235.207809,253.292297 236.113663,254.188873 237.158569,255.381958   C240.420761,258.516602 243.543900,261.354706 246.667053,264.192810   C252.514542,270.112122 258.362030,276.031403 264.600952,282.394379   C266.310150,284.324951 267.555298,285.884369 268.956573,287.287903   C289.547852,307.912506 309.673584,329.035767 330.937744,348.942719   C345.144928,362.243073 344.636749,381.156647 330.725555,394.212494   C311.184662,412.552002 292.789520,432.106812 273.628143,450.859619   C267.889557,456.475830 261.228668,461.149597 254.990326,466.255188   C242.520584,468.953247 232.387817,465.401428 223.397003,456.162079   C202.602219,434.792450 181.304886,413.912140 160.231430,392.813324   C147.315903,379.882324 147.212158,363.336823 160.102280,350.370850   C181.361191,328.986786 202.708664,307.690796 224.044815,286.383698   C225.319473,285.110779 226.823792,284.067871 229.153946,282.150452   C225.578430,279.009491 222.714325,276.493469 219.441803,273.538818   C217.969131,272.063812 216.904877,271.027374 215.840607,269.990936  M249.904556,304.104309   C246.806015,300.450592 244.340759,302.136017 241.654007,304.830688   C221.199936,325.345062 200.674377,345.788177 180.180923,366.263336   C175.477768,370.962341 175.484894,372.070282 180.251480,376.837646   C200.616394,397.205902 220.992279,417.563202 241.365997,437.922638   C242.072235,438.628418 242.693512,439.497406 243.533340,439.977051   C246.327469,441.572754 248.901321,442.059509 250.688782,437.939392   C251.829437,437.003143 253.058441,436.155365 254.097687,435.117554   C273.652924,415.588898 293.189270,396.041321 312.720551,376.488678   C317.270325,371.933929 317.276031,371.400146 312.755096,366.858856   C293.139954,347.155243 273.520355,327.456116 253.870010,307.787659   C252.727402,306.644012 251.299591,305.785309 249.904556,304.104309  z"
   id="path4" />
<path
   fill="#7ED958"
   opacity="1.000000"
   stroke="none"
   d=" M245.955643,237.213623   C240.309830,231.762451 234.664017,226.311264 228.745361,220.661713   C222.572952,214.184372 216.808014,207.772095 210.748276,201.651733   C193.533249,184.264587 176.536041,166.639740 158.782532,149.816071   C148.196960,139.784912 149.159805,121.046890 158.263168,112.003998   C181.172058,89.247238 203.956161,66.364662 226.753418,43.495781   C234.380905,35.844345 243.922485,34.710308 254.526733,35.551727   C264.787628,40.489799 271.266418,48.874134 278.634460,56.168030   C296.722809,74.074402 314.189117,92.639915 332.819397,109.957268   C345.158081,121.426430 343.923035,141.317413 332.777313,152.014679   C311.057678,172.860321 290.061035,194.459412 268.775238,215.756714   C267.415253,217.117447 266.143127,218.566055 264.788635,220.018265   C269.171600,224.681320 273.144196,228.907791 277.116821,233.134262   C271.381378,238.927338 265.645905,244.720413 259.498810,250.418335   C256.173309,247.709229 253.259415,245.095276 250.262299,242.175751   C248.771255,240.318008 247.363449,238.765808 245.955643,237.213623  M249.927155,63.362400   C247.604858,60.140648 245.153503,60.378933 242.521561,63.013062   C221.367142,84.185081 200.210007,105.354416 179.025513,126.496300   C176.220108,129.296066 176.267868,131.836060 179.062119,134.623199   C200.487625,155.994370 221.861313,177.417496 243.295029,198.780396   C246.310059,201.785446 247.939987,201.248657 250.708328,196.965042   C251.405518,196.568008 252.233185,196.301743 252.781052,195.755081   C273.181702,175.398209 293.525848,154.984589 313.965424,134.666962   C317.310638,131.341705 315.934479,129.031021 313.219147,126.313728   C293.319275,106.399826 273.499542,86.405930 253.611359,66.480331   C252.614029,65.481110 251.217606,64.880226 249.927155,63.362400  z"
   id="path5" />
<path
   fill="#A7EB8B"
   opacity="1.000000"
   stroke="none"
   d=" M277.402863,232.982727   C273.144196,228.907791 269.171600,224.681320 264.788635,220.018265   C266.143127,218.566055 267.415253,217.117447 268.775238,215.756714   C290.061035,194.459412 311.057678,172.860321 332.777313,152.014679   C343.923035,141.317413 345.158081,121.426430 332.819397,109.957268   C314.189117,92.639915 296.722809,74.074402 278.634460,56.168030   C271.266418,48.874134 264.787628,40.489799 254.979401,35.591087   C262.319489,34.354336 268.910767,36.595573 274.080170,41.711922   C297.642303,65.032196 321.085846,88.473907 344.405518,112.036774   C354.288269,122.022591 353.532135,139.891190 343.026367,150.454620   C321.763306,171.834320 300.415405,193.129623 279.100677,214.457870   C274.113434,219.448242 274.112152,219.442841 278.908569,224.726013   C279.802277,225.710419 280.670837,226.717636 281.827209,227.922485   C280.631897,229.697510 279.160400,231.264343 277.402863,232.982727  z"
   id="path6" />
<path
   fill="#FF8282"
   opacity="1.000000"
   stroke="none"
   d=" M255.288513,466.468445   C261.228668,461.149597 267.889557,456.475830 273.628143,450.859619   C292.789520,432.106812 311.184662,412.552002 330.725555,394.212494   C344.636749,381.156647 345.144928,362.243073 330.937744,348.942719   C309.673584,329.035767 289.547852,307.912506 268.956573,287.287903   C267.555298,285.884369 266.310150,284.324951 264.917969,282.510345   C266.047577,280.862640 267.251617,279.542603 269.028503,278.184326   C271.013367,279.411835 272.425385,280.677551 273.837433,281.943298   C278.822784,287.063141 283.755127,292.235870 288.803101,297.293243   C306.558716,315.081970 324.393127,332.792206 342.120575,350.608917   C353.952789,362.500702 354.870758,378.062012 343.242706,390.259338   C323.839691,410.612457 303.716400,430.279480 283.865448,450.204529   C280.462708,453.620026 276.952423,456.932404 273.409790,460.203522   C268.390472,464.838196 262.259552,466.534546 255.288513,466.468445  z"
   id="path7" />
<path
   fill="#93D8FF"
   opacity="1.000000"
   stroke="none"
   d=" M376.256042,346.211182   C382.624634,340.477570 389.676514,335.456177 395.792480,329.477386   C415.211304,310.494263 434.295502,291.168518 453.480438,271.946655   C465.272369,260.132080 465.289978,242.825989 453.460602,230.953094   C432.175751,209.589966 410.756042,188.360657 389.562500,166.907654   C384.881714,162.169601 379.751404,158.515701 373.211487,156.243591   C381.565887,153.858948 388.998199,156.980774 394.751831,162.608124   C418.190369,185.532074 441.422241,208.676987 464.308228,232.151932   C474.909821,243.026352 474.217041,260.038727 463.468353,270.871216   C440.960480,293.554504 418.379822,316.167114 395.647614,338.625092   C390.495911,343.714630 384.264221,347.218689 376.256042,346.211182  z"
   id="path8" />
<path
   fill="#FFE789"
   opacity="1.000000"
   stroke="none"
   d=" M219.834671,227.688080   C215.827591,233.198669 215.704269,233.214752 211.028076,228.539993   C192.482117,209.999695 173.867538,191.527084 155.439392,172.870361   C148.783295,166.131699 142.033798,159.664673 133.006180,155.673370   C140.805359,154.256927 147.871597,156.488861 153.452118,161.947083   C175.639175,183.647919 197.612045,205.567703 219.834671,227.688080  z"
   id="path9" />
<path
   fill="#FFE789"
   opacity="1.000000"
   stroke="none"
   d=" M215.509338,270.035645   C216.904877,271.027374 217.969131,272.063812 219.128052,273.406860   C217.437180,275.665100 215.722443,277.687439 213.855225,279.557465   C194.498993,298.942810 175.129227,318.314667 155.736588,337.663605   C150.781036,342.608002 145.118317,346.136749 137.359650,345.917847   C140.434570,342.907806 144.167542,340.225159 147.388565,337.026886   C168.649368,315.916321 189.793533,294.688354 211.002930,273.525909   C212.274582,272.257080 213.780930,271.223450 215.509338,270.035645  z"
   id="path10" />
<path
   fill="#90D6FE"
   opacity="1.000000"
   stroke="none"
   d=" M274.021515,281.662781   C272.425385,280.677551 271.013367,279.411835 269.308472,278.006165   C271.622955,275.140015 274.230255,272.413818 277.301178,269.202820   C278.720398,270.892090 279.735443,272.100281 280.873260,273.623901   C278.732574,276.420319 276.469086,278.901306 274.021515,281.662781  z"
   id="path11" />

<path
   fill="#90D7FF"
   opacity="1.000000"
   stroke="none"
   d=" M370.003876,184.323669   C368.898041,186.084885 367.895203,187.612183 366.631165,188.878799   C347.803040,207.745178 328.936279,226.573013 310.088593,245.419876   C305.059753,250.448502 305.042236,251.396942 309.944733,256.304169   C329.136108,275.514099 348.335480,294.716095 367.557404,313.895477   C368.716827,315.052307 370.098297,315.986542 371.725281,317.083374   C367.218292,322.166168 366.569519,322.186798 361.778839,317.396729   C341.398712,297.019257 321.019562,276.640778 300.644836,256.257904   C295.934174,251.545334 295.869476,250.723709 300.391693,246.189896   C320.862061,225.667114 341.366486,205.178345 361.855347,184.674026   C364.375702,182.151810 366.895966,179.836288 370.003876,184.323669  z"
   id="path13" />
<path
   fill="transparent"
   opacity="1.000000"
   stroke="none"
   d=" M250.345520,242.481308   C253.259415,245.095276 256.173309,247.709229 259.269318,250.624344   C256.848328,253.584961 254.245178,256.244446 251.041931,258.884888   C247.895523,256.271942 245.349228,253.678040 242.961838,250.775116   C245.529022,247.804504 247.937271,245.142914 250.345520,242.481308  z"
   id="path14" />
<path
   fill="#FE8181"
   opacity="1.000000"
   stroke="none"
   d=" M242.802917,251.084137   C245.349228,253.678040 247.895523,256.271942 250.738739,259.041199   C249.711945,260.685852 248.388214,262.155182 246.865784,263.908661   C243.543900,261.354706 240.420761,258.516602 237.491455,255.340424   C239.391159,253.696274 241.097031,252.390198 242.802917,251.084137  z"
   id="path15" />

<path
   fill="#FFE789"
   opacity="1.000000"
   stroke="none"
   d=" M130.863251,184.553604   C129.566513,185.876877 127.921089,186.719894 126.672935,187.962082   C107.424408,207.119034 88.221779,226.322159 69.022881,245.528931   C64.576393,249.977234 64.596825,251.231140 69.090843,255.746277   C89.303696,276.054108 109.524307,296.354218 129.869415,316.988922   C127.322090,321.919067 125.797066,322.254669 122.198822,318.665863   C100.879623,297.402679 79.641853,276.057617 58.262661,254.855057   C55.601143,252.215515 55.845509,250.080597 57.990219,247.588470   C58.639843,246.833633 59.376148,246.152649 60.081745,245.446823   C80.428894,225.093613 100.774406,204.738739 121.127380,184.391373   C125.753387,179.766617 126.089157,179.774445 130.863251,184.553604  z"
   id="path17" />
<path
   fill="#FEE588"
   opacity="1.000000"
   stroke="none"
   d=" M242.961823,250.775116   C241.097031,252.390198 239.391159,253.696274 237.352402,255.043884   C236.113663,254.188873 235.207809,253.292297 234.146683,252.115326   C236.717941,248.662567 239.449722,245.494705 242.168640,242.315842   C243.428406,240.842972 244.663101,239.348694 245.932404,237.538864   C247.363449,238.765808 248.771255,240.318008 250.262299,242.175751   C247.937271,245.142914 245.529022,247.804504 242.961823,250.775116  z"
   id="path18" />

<path
   fill="#FF8585"
   opacity="1.000000"
   stroke="none"
   d=" M249.954529,304.449158   C248.830582,306.172028 247.744049,307.637146 246.469589,308.914856   C228.235657,327.195343 209.976547,345.450714 191.723038,363.711639   C184.319901,371.117737 184.344666,371.092133 191.894836,378.713165   C211.234924,398.234894 230.550323,417.781097 249.937683,437.650024   C248.901321,442.059509 246.327469,441.572754 243.533340,439.977051   C242.693512,439.497406 242.072235,438.628418 241.365997,437.922638   C220.992279,417.563202 200.616394,397.205902 180.251480,376.837646   C175.484894,372.070282 175.477768,370.962341 180.180923,366.263336   C200.674377,345.788177 221.199936,325.345062 241.654007,304.830688   C244.340759,302.136017 246.806015,300.450592 249.954529,304.449158  z"
   id="path20" />

<path
   fill="#A7EB8B"
   opacity="1.000000"
   stroke="none"
   d=" M249.967072,63.728134   C246.237366,68.047462 242.540115,72.073181 238.685501,75.942108   C222.378723,92.309418 206.022232,108.627167 189.690521,124.969620   C184.618149,130.045319 184.635590,130.322952 189.547699,135.290710   C209.644226,155.614853 229.733002,175.946655 249.915283,196.593597   C247.939987,201.248657 246.310059,201.785446 243.295029,198.780396   C221.861313,177.417496 200.487625,155.994370 179.062119,134.623199   C176.267868,131.836060 176.220108,129.296066 179.025513,126.496300   C200.210007,105.354416 221.367142,84.185081 242.521561,63.013062   C245.153503,60.378933 247.604858,60.140648 249.967072,63.728134  z"
   id="path22" />
</svg>
