<?xml version="1.0" encoding="UTF-8" standalone="no"?>
<svg
   version="1.1"
   id="Layer_1"
   x="0px"
   y="0px"
   width="100%"
   viewBox="0 0 500 500"
   enable-background="new 0 0 500 500"
   xml:space="preserve"
   sodipodi:docname="QS-Logo.svg"
   inkscape:version="1.3.2 (091e20e, 2023-11-25)"
   inkscape:export-filename="QS-Logo.png"
   inkscape:export-xdpi="96"
   inkscape:export-ydpi="96"
   xmlns:inkscape="http://www.inkscape.org/namespaces/inkscape"
   xmlns:sodipodi="http://sodipodi.sourceforge.net/DTD/sodipodi-0.dtd"
   xmlns="http://www.w3.org/2000/svg"
   xmlns:svg="http://www.w3.org/2000/svg"><defs
   id="defs22" /><sodipodi:namedview
   id="namedview22"
   pagecolor="#ffffff"
   bordercolor="#000000"
   borderopacity="0.25"
   inkscape:showpageshadow="2"
   inkscape:pageopacity="0.0"
   inkscape:pagecheckerboard="0"
   inkscape:deskcolor="#d1d1d1"
   inkscape:zoom="0.70910507"
   inkscape:cx="249.6104"
   inkscape:cy="258.07177"
   inkscape:window-width="1280"
   inkscape:window-height="621"
   inkscape:window-x="0"
   inkscape:window-y="25"
   inkscape:window-maximized="0"
   inkscape:current-layer="Layer_1" />

<path
   fill="#39b7ff"
   opacity="1"
   stroke="none"
   d="m 285.26537,224.03629 c 20.16943,-20.41177 40.33976,-40.82261 60.50714,-61.23651 2.38942,-2.41862 4.97331,-4.67665 7.10616,-7.31286 8.75059,-10.81556 19.6787,-16.08726 34.31605,-13.90857 7.87689,2.61371 13.64598,6.80452 18.90958,12.23879 23.83237,24.60531 47.91907,48.95407 71.85411,73.45631 13.30227,13.61752 13.28247,33.46658 0.0223,47.01719 -21.57367,22.04633 -43.03406,44.21182 -64.87074,65.98434 -6.87747,6.85731 -14.80739,12.61655 -22.25562,18.87838 -15.49758,3.79235 -27.22043,-2.09552 -38.03022,-13.44582 -22.27227,-23.38582 -45.33053,-45.99289 -68.57278,-69.3877 -1.64878,-1.853 -2.79021,-3.23873 -4.38614,-5.17621 -3.45329,3.68282 -6.38523,6.8096 -9.63202,10.14077 -1.66883,1.71834 -3.02278,3.23234 -4.73319,4.61331 -6.93207,-6.92211 -13.50763,-13.71117 -19.85973,-20.82618 1.71199,-2.01113 3.20055,-3.69637 5.03003,-5.56087 3.26819,-3.22952 6.19546,-6.2798 9.38076,-9.56633 6.70767,-6.88058 13.15727,-13.52488 19.9285,-20.343 1.97636,-1.97089 3.63108,-3.76796 5.2858,-5.56504 m 101.77286,101.62797 c 22.64657,-23.06356 45.29904,-46.12107 67.93525,-69.19524 5.05302,-5.15077 5.0489,-6.50512 0.004,-11.65743 -21.95401,-22.42123 -43.90699,-44.84365 -65.92014,-67.20436 -1.38119,-1.40298 -3.27222,-2.28384 -4.96767,-4.22229 -3.47404,-4.73943 -6.30812,-2.08366 -9.14227,0.80916 -23.03995,23.51724 -46.09741,47.01665 -69.11656,70.55506 -5.08528,5.20002 -5.01253,6.14237 0.28467,11.54741 22.9116,23.37795 45.82817,46.75085 68.74585,70.12261 5.38717,5.49391 6.11672,5.47026 12.17696,-0.75492 z"
   id="path2"
   style="stroke-width:1.13566" />
<path
   fill="#ffde5a"
   opacity="1"
   stroke="none"
   d="m 215.43513,223.85178 c 2.9282,-2.7274 5.8564,-5.45477 9.45998,-8.16828 7.02416,6.26604 13.37294,12.51823 19.69559,19.14344 -1.42735,2.07577 -2.81578,3.78962 -4.23239,5.47891 -3.05746,3.64597 -6.12938,7.27932 -9.59173,10.9555 -6.9357,6.95381 -13.47506,13.87 -20.38696,20.83747 -1.94361,1.36235 -3.63751,2.54785 -5.0675,4.00313 -23.8502,24.27207 -47.62704,48.61929 -71.53505,72.83186 -3.62208,3.66822 -7.81984,6.74506 -11.75132,10.09546 -4.27294,0.39515 -8.56348,1.25595 -12.81516,1.08876 -8.94772,-0.35185 -16.555794,-4.07011 -22.921956,-10.58924 C 61.848683,324.50161 37.306668,299.57804 12.880399,274.53701 -1.6805569,259.6096 -1.6322277,240.7911 12.904589,225.93101 36.572647,201.73658 60.440964,177.743 83.88787,153.32808 c 7.950398,-8.27863 16.62601,-13.39346 28.24618,-12.29565 1.4527,0.13723 2.95922,-0.31815 5.01771,-0.12222 10.60382,4.59966 18.1937,12.01695 25.67855,19.7458 20.72266,21.39814 41.65495,42.58513 62.51009,63.84976 5.25843,5.36167 5.3971,5.34322 10.09473,-0.65399 M 115.00988,173.71812 c -5.18422,-5.14354 -5.5618,-5.15251 -10.76379,0.1518 -22.887143,23.33722 -45.765896,46.68306 -68.646487,70.02699 -0.793451,0.80953 -1.621434,1.59058 -2.351943,2.45632 -2.41175,2.85834 -2.686542,5.30697 0.306364,8.33437 24.041134,24.31807 47.923242,48.79958 71.896906,73.18719 4.04627,4.11615 5.76117,3.73124 9.54627,-1.72764 0.47974,-0.29059 1.04402,-0.49465 1.42708,-0.88416 23.07546,-23.46139 46.11159,-46.96296 69.22301,-70.38736 3.63712,-3.68637 2.43636,-6.48502 -0.68697,-9.65327 -23.23414,-23.56828 -46.39676,-47.20989 -69.95044,-71.50424 z"
   id="path3"
   style="stroke-width:1.13566" />
<path
   fill="#ff3232"
   opacity="1"
   stroke="none"
   d="m 210.75214,272.04754 c 6.53938,-6.91619 13.07874,-13.83238 20.18905,-20.46459 1.58958,1.31224 2.60822,2.34057 3.78323,3.70897 3.66837,3.59524 7.18038,6.85037 10.6924,10.10552 6.57556,6.7891 13.15112,13.57816 20.16686,20.87612 1.92201,2.21425 3.3222,4.0028 4.89794,5.61257 23.15512,23.65521 45.78672,47.88234 69.69851,70.71443 15.97613,15.25472 15.40467,36.94747 -0.23861,51.92175 -21.97395,21.03432 -42.65948,43.46254 -64.20666,64.97089 -6.45311,6.44146 -13.94335,11.80199 -20.95844,17.6578 -14.02235,3.09451 -25.41676,-0.97921 -35.52703,-11.57619 -23.38396,-24.5097 -47.33304,-48.45818 -71.03038,-72.65727 -14.52365,-14.83109 -14.64031,-33.80779 -0.14522,-48.67901 23.90587,-24.52624 47.91134,-48.95148 71.90407,-73.38947 1.43337,-1.45995 3.12499,-2.6561 5.74527,-4.85527 -4.0207,-3.6025 -7.24142,-6.48823 -10.9214,-9.87703 -1.65605,-1.69175 -2.85281,-2.88049 -4.04959,-4.06922 m 38.30529,39.12602 c -3.48435,-4.1906 -6.25656,-2.25751 -9.27784,0.83311 -23.00082,23.52877 -46.08204,46.97582 -69.12715,70.45961 -5.28875,5.38948 -5.28074,6.66022 0.0793,12.1281 22.90058,23.36119 45.81348,46.70981 68.72395,70.06088 0.79417,0.80948 1.49281,1.80615 2.4372,2.35629 3.14203,1.83017 6.03636,2.38844 8.04637,-2.33708 1.28268,-1.07382 2.66471,-2.04617 3.83335,-3.23649 21.99008,-22.39821 43.95891,-44.81813 65.92206,-67.24385 5.11627,-5.22402 5.12268,-5.83624 0.0388,-11.04483 -22.05744,-22.59888 -44.1199,-45.1926 -66.21693,-67.75116 -1.28487,-1.31169 -2.89046,-2.29657 -4.45919,-4.22458 z"
   id="path4"
   style="stroke-width:1.13566" />
<path
   fill="#7ed958"
   opacity="1"
   stroke="none"
   d="m 244.61683,234.4539 c -6.34878,-6.25217 -12.69756,-12.50436 -19.35315,-18.98405 -6.94094,-7.42913 -13.42367,-14.78363 -20.23792,-21.80332 -19.35849,-19.94203 -38.47203,-40.15668 -58.43604,-59.45243 -11.9036,-11.50515 -10.82087,-32.99654 -0.58404,-43.368206 25.7613,-26.100657 51.38227,-52.345615 77.01804,-78.574865 8.57718,-8.7757439 19.3068,-10.0764165 31.23139,-9.1113594 11.53849,5.6636762 18.82396,15.2800114 27.1094,23.6456784 20.34054,20.537546 39.9816,41.831089 60.93155,61.69307 13.87499,13.154452 12.48617,35.968222 -0.0473,48.237352 -24.42397,23.90872 -48.03492,48.6816 -71.97103,73.10834 -1.52931,1.56067 -2.95984,3.22214 -4.48298,4.88774 4.92869,5.34825 9.39592,10.19576 13.86318,15.04327 -6.44957,6.64433 -12.89917,13.28863 -19.81164,19.82381 -3.73956,-3.10718 -7.01627,-6.10522 -10.38656,-9.45375 -1.67669,-2.13073 -3.25979,-3.91101 -4.84288,-5.69128 m 4.46601,-199.397036 c -2.61145,-3.69516 -5.36802,-3.421861 -8.32768,-0.40067 -23.78836,24.28305 -47.57979,48.563026 -71.40199,72.811506 -3.15471,3.21117 -3.101,6.1244 0.0411,9.32108 24.09322,24.51146 48.12816,49.08252 72.23061,73.58449 3.39043,3.44663 5.22331,2.83096 8.33633,-2.08209 0.784,-0.45539 1.71472,-0.76077 2.33081,-1.38776 22.94074,-23.34813 45.81796,-46.76133 68.80248,-70.06445 3.76173,-3.81388 2.21423,-6.46409 -0.83919,-9.58066 -22.37762,-22.840066 -44.66513,-45.771884 -67.02961,-68.625364 -1.12151,-1.146047 -2.6918,-1.835226 -4.14292,-3.576082 z"
   id="path5"
   style="stroke-width:1.13566" />
<path
   fill="#a7eb8b"
   opacity="1"
   stroke="none"
   d="m 279.97957,229.60133 c -4.78892,-4.67372 -9.25615,-9.52123 -14.18484,-14.86948 1.52314,-1.6656 2.95367,-3.32707 4.48298,-4.88774 23.93611,-24.42674 47.54706,-49.19962 71.97103,-73.10834 12.53349,-12.26913 13.92231,-35.0829 0.0473,-48.237352 C 321.34611,68.636437 301.70505,47.342894 281.36451,26.805348 273.07907,18.439681 265.7936,8.8233458 254.76414,3.2048137 c 8.25401,-1.4184797 15.66598,1.1520859 21.47902,7.0202343 26.49587,26.746972 52.8584,53.633225 79.08163,80.658438 11.11326,11.453134 10.26298,31.947354 -1.55087,44.062984 -23.91055,24.52125 -47.9165,48.9457 -71.88514,73.40794 -5.60821,5.72366 -5.60966,5.71747 -0.21603,11.77695 1.00499,1.12905 1.98169,2.28427 3.28204,3.66616 -1.34414,2.03585 -2.99886,3.83292 -4.97522,5.80381 z"
   id="path6"
   style="stroke-width:1.13566" />
<path
   fill="#ff8282"
   opacity="1"
   stroke="none"
   d="m 255.11174,497.39559 c 6.67977,-6.1004 14.17001,-11.46093 20.62312,-17.90239 21.54718,-21.50835 42.23271,-43.93657 64.20666,-64.97089 15.64328,-14.97428 16.21474,-36.66703 0.23861,-51.92175 -23.91179,-22.83209 -46.54339,-47.05922 -69.69851,-70.71443 -1.57574,-1.60977 -2.97593,-3.39832 -4.54145,-5.47956 1.27026,-1.88983 2.62421,-3.40383 4.62234,-4.96169 2.232,1.40788 3.81983,2.85958 5.40769,4.31131 5.60609,5.87216 11.15255,11.80498 16.82906,17.60548 19.96638,20.40261 40.02137,40.7152 59.95608,61.14992 13.30546,13.63917 14.33772,31.48706 1.26185,45.47668 -21.81891,23.34382 -44.44776,45.90072 -66.77037,68.75358 -3.82642,3.91737 -7.77378,7.71647 -11.7575,11.46825 -5.64429,5.3157 -12.53857,7.26131 -20.37758,7.18549 z"
   id="path7"
   style="stroke-width:1.13566" />
<path
   fill="#93d8ff"
   opacity="1"
   stroke="none"
   d="m 391.14105,359.46765 c 7.16154,-6.57612 15.09146,-12.33536 21.96893,-19.19267 21.83668,-21.77252 43.29707,-43.93801 64.87074,-65.98434 13.26016,-13.55061 13.27996,-33.39967 -0.0223,-47.01719 -23.93505,-24.50224 -48.02174,-48.851 -71.85412,-73.45631 -5.2636,-5.43427 -11.03268,-9.62508 -18.38689,-12.23106 9.39461,-2.73505 17.75233,0.84551 24.22235,7.29974 26.35689,26.29242 52.48139,52.83825 78.21693,79.76263 11.92161,12.47231 11.14257,31.9845 -0.94445,44.40873 -25.31035,26.01638 -50.70254,51.9517 -76.26516,77.70968 -5.79315,5.83739 -12.80075,9.85634 -21.80603,8.70079 z"
   id="path8"
   style="stroke-width:1.13566" />
<path
   fill="#ffe789"
   opacity="1"
   stroke="none"
   d="m 215.24351,223.52868 c -4.50601,6.32031 -4.64468,6.33876 -9.90311,0.97709 -20.85514,-21.26463 -41.78743,-42.45162 -62.51009,-63.84976 -7.48485,-7.72885 -15.07473,-15.14614 -25.22639,-19.72393 8.77026,-1.62459 16.71632,0.93532 22.99168,7.19557 24.94959,24.88957 49.65833,50.03026 74.64791,75.40103 z"
   id="path9"
   style="stroke-width:1.13566" />
<path
   fill="#ffe789"
   opacity="1"
   stroke="none"
   d="m 210.37962,272.09882 c 1.5693,1.13745 2.76606,2.32619 4.06929,3.86659 -1.9014,2.59005 -3.82965,4.90956 -5.92936,7.05437 -21.76628,22.23384 -43.5478,44.45222 -65.35503,66.64431 -5.57257,5.67092 -11.94037,9.71818 -20.66507,9.46712 3.45778,-3.45234 7.65554,-6.52918 11.27762,-10.1974 23.90801,-24.21257 47.68485,-48.55979 71.53505,-72.83186 1.42999,-1.45528 3.12389,-2.64078 5.0675,-4.00313 z"
   id="path10"
   style="stroke-width:1.13566" />
<path
   fill="#90d6fe"
   opacity="1"
   stroke="none"
   d="m 276.17721,285.43445 c -1.79487,-1.12999 -3.3827,-2.58169 -5.29987,-4.19391 2.60265,-3.28731 5.53459,-6.41409 8.98788,-10.09691 1.59593,1.93748 2.73736,3.32321 4.01685,5.07071 -2.40722,3.20733 -4.95254,6.05287 -7.70486,9.22011 z"
   id="path11"
   style="stroke-width:1.13566" />

<path
   fill="#90d7ff"
   opacity="1"
   stroke="none"
   d="m 384.11042,173.79227 c -1.24352,2.02001 -2.37123,3.77173 -3.79266,5.22446 -21.17243,21.63862 -42.3883,43.23304 -63.58273,64.84926 -5.65499,5.76754 -5.67469,6.85535 -0.16177,12.48364 21.58091,22.03266 43.17081,44.05621 64.78608,66.05382 1.30378,1.32682 2.85726,2.39833 4.68681,3.65633 -5.06816,5.82966 -5.7977,5.85331 -11.18488,0.3594 -22.91767,-23.37176 -45.83425,-46.74466 -68.74585,-70.12261 -5.29719,-5.40504 -5.36994,-6.34739 -0.28466,-11.54741 23.01915,-23.53841 46.0766,-47.03782 69.11655,-70.55506 2.83416,-2.89282 5.66823,-5.54859 9.16311,-0.40183 z"
   id="path13"
   style="stroke-width:1.13566" />

<path
   fill="#fe8181"
   opacity="1"
   stroke="none"
   d="m 241.07155,250.36256 c 2.86336,2.97505 5.7267,5.95011 8.92392,9.12629 -1.15464,1.88631 -2.64319,3.57155 -4.35518,5.58268 -3.73549,-2.92924 -7.2475,-6.18437 -10.54153,-9.82726 2.13624,-1.88574 4.0545,-3.38372 5.97279,-4.88171 z"
   id="path15"
   style="stroke-width:1.13566" />

<path
   fill="#ffe789"
   opacity="1"
   stroke="none"
   d="m 115.19418,174.05599 c -1.4582,1.51771 -3.3085,2.4846 -4.71206,3.90932 -21.645179,21.97189 -43.238742,43.99674 -64.828112,66.02576 -5.000124,5.10194 -4.977148,6.5401 0.07643,11.7187 22.729573,23.29187 45.467876,46.5749 68.346152,70.24168 -2.86449,5.65458 -4.57938,6.03949 -8.62565,1.92334 -23.973664,-24.38761 -47.855777,-48.86912 -71.896911,-73.18719 -2.992906,-3.0274 -2.718114,-5.47603 -0.306364,-8.33437 0.73051,-0.86574 1.558492,-1.64679 2.351943,-2.45632 22.880591,-23.34393 45.75935,-46.68977 68.646492,-70.02699 5.20198,-5.30431 5.57957,-5.29534 10.94808,0.18607 z"
   id="path17"
   style="stroke-width:1.13566" />
<path
   fill="#fee588"
   opacity="1"
   stroke="none"
   d="m 241.25024,250.00814 c -2.09698,1.85241 -4.01524,3.35039 -6.30785,4.89602 -1.39298,-0.98064 -2.41162,-2.00897 -3.60487,-3.35888 2.89141,-3.96011 5.96333,-7.59346 9.02079,-11.23943 1.41661,-1.68929 2.80504,-3.40314 4.23239,-5.47891 1.60922,1.40723 3.19231,3.18751 4.86901,5.31824 -2.61452,3.40316 -5.32262,6.45584 -8.20947,9.86296 z"
   id="path18"
   style="stroke-width:1.13566" />

<path
   fill="#ff8585"
   opacity="1"
   stroke="none"
   d="m 249.11362,311.56907 c -1.26389,1.97604 -2.48572,3.65644 -3.91885,5.1219 -20.50426,20.96664 -41.03683,41.90447 -61.56309,62.84866 -8.32492,8.49436 -8.29707,8.46499 0.19319,17.20586 21.74813,22.39027 43.4685,44.80862 65.2698,67.59709 -1.16539,5.05741 -4.05972,4.49914 -7.20175,2.66897 -0.94439,-0.55014 -1.64303,-1.54681 -2.4372,-2.35629 -22.91047,-23.35107 -45.82337,-46.69969 -68.72394,-70.06088 -5.36008,-5.46788 -5.36809,-6.73862 -0.0793,-12.1281 23.04512,-23.48379 46.12633,-46.93084 69.12716,-70.45961 3.02127,-3.09062 5.79348,-5.02371 9.33402,-0.4376 z"
   id="path20"
   style="stroke-width:1.13566" />

<path
   fill="#a7eb8b"
   opacity="1"
   stroke="none"
   d="m 249.12772,35.476339 c -4.19409,4.954012 -8.3517,9.571273 -12.68625,14.008704 -18.33715,18.772334 -36.7302,37.487821 -55.09538,56.231647 -5.70394,5.82153 -5.68433,6.13996 -0.16061,11.83768 22.59876,23.31059 45.18881,46.62996 67.884,70.31078 -2.22123,5.33908 -4.05411,5.95475 -7.44454,2.50812 -24.10245,-24.50197 -48.13739,-49.07303 -72.23061,-73.58449 -3.14216,-3.19668 -3.19587,-6.10991 -0.0411,-9.32108 23.8222,-24.24848 47.61363,-48.528456 71.40199,-72.811506 2.95966,-3.021191 5.71623,-3.29449 8.37256,0.820145 z"
   id="path22"
   style="stroke-width:1.13566" />
</svg>
