<?xml version="1.0" encoding="UTF-8" standalone="no"?><svg xmlns="http://www.w3.org/2000/svg" xmlns:xlink="http://www.w3.org/1999/xlink" fill="#ffffff" height="400.1" preserveAspectRatio="xMidYMid meet" version="1" viewBox="0.0 0.0 352.5 400.1" width="352.5" zoomAndPan="magnify"><g id="change1_1"><path d="M83.55,131.07c2.54,2.48,2.6,6.55,0.12,9.09l-20.96,21.66c-2.48,2.54-6.55,2.6-9.09,0.12l-6.17-5.99 c-2.54-2.46-2.61-6.52-0.15-9.07c2.46-2.54,6.52-2.61,9.07-0.15l1.57,1.52l16.51-17.07l0,0C76.93,128.65,81,128.59,83.55,131.07z M29.43,176.11V116.9c0-3.56,2.89-6.45,6.45-6.45h59.21c3.56,0,6.45,2.89,6.45,6.45v59.22c0,3.56-2.89,6.45-6.45,6.45H35.88 C32.32,182.56,29.43,179.68,29.43,176.11z M42.33,169.66h46.31v-46.32H42.33V169.66z M121.8,123.35h141.78 c3.56,0,6.45-2.89,6.45-6.45s-2.89-6.45-6.45-6.45H121.8c-3.56,0-6.45,2.89-6.45,6.45S118.24,123.35,121.8,123.35z M121.8,152.96 h110.34c3.56,0,6.45-2.89,6.45-6.45c0-3.56-2.89-6.45-6.45-6.45H121.8c-3.56,0-6.45,2.89-6.45,6.45 C115.35,150.07,118.24,152.96,121.8,152.96z M198.17,272.75v20.34c0,3.34-2.59,6.17-5.97,6.42L172.63,301 c-0.57,1.88-1.23,3.7-1.96,5.46c-0.74,1.79-1.57,3.54-2.49,5.27l12.49,14.55c2.5,2.52,2.5,6.59-0.02,9.1l-14.38,14.38 c-2.36,2.34-6.17,2.52-8.74,0.33l-14.9-12.8c-1.7,0.9-3.46,1.73-5.27,2.48h-0.03h0c-1.77,0.73-3.58,1.38-5.44,1.95l-1.46,19.27 c-0.09,3.48-2.94,6.28-6.45,6.28h-20.34c-3.34,0-6.17-2.58-6.42-5.97l-1.49-19.58c-1.88-0.57-3.7-1.23-5.46-1.96 c-1.82-0.76-3.58-1.59-5.27-2.49l-14.54,12.49c-2.52,2.5-6.59,2.5-9.1-0.02l-14.39-14.38c-2.34-2.36-2.52-6.17-0.33-8.74l12.8-14.91 c-0.92-1.72-1.76-3.48-2.49-5.27c-0.73-1.76-1.39-3.59-1.96-5.46l-19.27-1.46c-3.48-0.09-6.28-2.94-6.28-6.45v-20.34 c0-3.34,2.59-6.17,5.97-6.42l19.58-1.49c0.54-1.74,1.14-3.45,1.82-5.11l0.14-0.35c0.74-1.79,1.57-3.54,2.49-5.27l-12.49-14.55 c-2.5-2.52-2.5-6.59,0.02-9.1l14.38-14.38c2.36-2.34,6.17-2.52,8.74-0.33l14.91,12.8c1.59-0.84,3.23-1.62,4.94-2.34l0.34-0.15 c1.76-0.73,3.59-1.39,5.46-1.96l1.46-19.27c0.09-3.48,2.94-6.28,6.45-6.28h20.34c3.34,0,6.17,2.59,6.42,5.97l1.49,19.58 c1.88,0.57,3.7,1.23,5.46,1.96c1.79,0.75,3.55,1.58,5.26,2.49l14.55-12.5c2.52-2.5,6.59-2.5,9.1,0.02l14.38,14.38 c2.34,2.36,2.52,6.17,0.33,8.74l-12.81,14.91c0.85,1.61,1.64,3.25,2.34,4.93l0.15,0.34c0.73,1.76,1.39,3.59,1.96,5.46l19.26,1.46 C195.38,266.39,198.17,269.24,198.17,272.75z M185.27,278.72l-18.16-1.38c-3.06-0.23-5.46-2.56-5.89-5.47 c-0.6-2.56-1.42-5.09-2.44-7.56l-0.12-0.32c-1.06-2.51-2.32-4.9-3.75-7.16c-1.55-2.44-1.25-5.54,0.54-7.63l11.88-13.85l-5.96-5.96 l-13.84,11.89c-2.29,1.96-5.56,2.03-7.91,0.35c-2.26-1.42-4.66-2.66-7.18-3.7l-0.02-0.01c-2.61-1.07-5.28-1.92-7.99-2.53 c-2.84-0.63-4.82-3.04-5.02-5.8l-1.4-18.17h-8.4l-1.38,18.17c-0.23,3.06-2.56,5.46-5.47,5.89c-2.56,0.6-5.09,1.42-7.55,2.44 l-0.32,0.12c-2.44,1.03-4.83,2.3-7.16,3.78c-2.58,1.63-5.88,1.21-7.97-0.84l-13.51-11.6l-5.96,5.96l11.89,13.84 c1.96,2.29,2.03,5.56,0.35,7.91c-1.4,2.23-2.64,4.64-3.7,7.2l-0.13,0.3c-1.01,2.48-1.82,5.06-2.4,7.69 c-0.63,2.84-3.04,4.82-5.8,5.02l-18.16,1.4v8.4l18.16,1.38c3.06,0.23,5.46,2.56,5.89,5.47c0.6,2.56,1.42,5.09,2.44,7.55 c1.11,2.66,2.41,5.17,3.88,7.48c1.56,2.44,1.25,5.54-0.54,7.63l-11.88,13.85l5.96,5.96l13.84-11.89c2.2-1.88,5.3-2.02,7.63-0.54 c2.42,1.52,4.92,2.84,7.46,3.89l0.02,0.01c2.61,1.07,5.28,1.92,7.99,2.53c2.84,0.63,4.82,3.04,5.02,5.8l1.4,18.17h8.4l1.38-18.17 c0.23-3.06,2.56-5.46,5.47-5.89l0,0c2.59-0.6,5.12-1.42,7.56-2.43c2.58-1.08,5.08-2.39,7.47-3.91c2.58-1.63,5.88-1.21,7.97,0.84 l13.51,11.6l5.96-5.96l-11.89-13.84c-1.96-2.29-2.03-5.56-0.35-7.91c1.4-2.23,2.64-4.64,3.7-7.2c1.08-2.6,1.93-5.28,2.54-7.99 c0.63-2.84,3.04-4.82,5.8-5.02l18.16-1.4V278.72z M139.09,257.63c6.47,6.47,10.48,15.41,10.48,25.29c0,9.84-4,18.76-10.47,25.25h0 l-0.03,0.03c-6.48,6.47-15.42,10.48-25.26,10.48c-9.87,0-18.81-4-25.29-10.48c-6.47-6.47-10.48-15.41-10.48-25.29 c0-9.86,4.01-18.79,10.48-25.26l0.03-0.03c6.47-6.47,15.41-10.48,25.26-10.48C123.68,247.16,132.62,251.16,139.09,257.63z M136.66,282.92c0-6.31-2.56-12.03-6.7-16.17c-4.13-4.13-9.85-6.7-16.17-6.7c-6.33,0-12.05,2.56-16.18,6.68 c-4.12,4.14-6.68,9.86-6.68,16.18c0,6.31,2.56,12.03,6.7,16.17c4.14,4.14,9.85,6.7,16.17,6.7l0,0c6.33,0,12.05-2.55,16.17-6.67 l0.03-0.03C134.11,294.97,136.66,289.25,136.66,282.92z M316.5,287.65L316.5,287.65l-52.83,54.61l-12.32-11.92 c-2.54-2.46-6.61-2.39-9.07,0.15c-2.46,2.54-2.39,6.61,0.15,9.07l16.93,16.38c2.54,2.46,6.61,2.39,9.07-0.15l57.29-59.22 c2.46-2.54,2.39-6.61-0.15-9.07C323.02,285.04,318.96,285.11,316.5,287.65z M352.55,267.93v68.66h-0.02l0,0.15 c-1.22,45.53-31.24,53.47-60.39,61.18l-4.93,1.32c-0.24,0.08-0.47,0.14-0.72,0.19l-1.2,0.32c-1.1,0.31-2.29,0.34-3.47,0.01 l-0.77-0.21H6.45c-3.56,0-6.45-2.89-6.45-6.45l0.03-0.59L0.5,51.38c0-3.55,2.88-6.42,6.42-6.42v-0.03h58.73V34.1 c0-3.56,2.89-6.45,6.45-6.45h39.3c3.06-7.43,8.08-13.87,14.41-18.66C133.27,3.35,142.53,0,152.53,0v0c10,0,19.27,3.35,26.73,8.99 c6.33,4.78,11.35,11.22,14.41,18.65h39.3c3.56,0,6.45,2.89,6.45,6.45v10.83h58.73c3.56,0,6.45,2.89,6.45,6.45v196.98 c2.13,1.06,4.36,2.08,6.67,3.07c12.08,5.16,25.64,8.98,35.09,10.06C349.8,261.62,352.55,264.46,352.55,267.93z M125.85,27.65h53.37 c-2.05-3.23-4.67-6.08-7.72-8.38c-5.28-3.99-11.86-6.37-18.96-6.37c-7.11,0-13.69,2.38-18.97,6.37 C130.52,21.57,127.9,24.41,125.85,27.65z M78.55,40.55v21.66h147.97V51.38c0-0.01,0-0.01,0-0.02V40.55H78.55z M12.88,386.66h229.48 c-15.4-8.2-26.89-21.83-27.8-49.27l-0.05-0.81v-68.66c0.01-3.25,2.46-6.05,5.77-6.4c9.47-1.01,23.25-4.87,35.51-10.1 c10-4.27,18.73-9.31,22.67-14.18l0.38-0.45l0.28-0.28c0.52-0.49,1.11-0.88,1.73-1.16l0.18-0.08c0.81-0.34,1.65-0.5,2.49-0.5 c0.84,0,1.68,0.16,2.48,0.49l0.2,0.09c0.63,0.29,1.21,0.67,1.73,1.16c0.25,0.23,0.44,0.47,0.67,0.73c0.83,1.02,1.88,2.06,3.1,3.09 V57.83h-52.28v10.83c0,3.56-2.89,6.45-6.45,6.45H72.1c-1.11,0-2.16-0.28-3.07-0.78c-2.01-1.09-3.38-3.22-3.38-5.67V57.83H13.34 L12.88,386.66z M339.67,336.59l-0.02-63.1c-9.96-1.77-22.33-5.49-33.41-10.22c-3.66-1.56-7.2-3.26-10.51-5.04 c-0.46-0.19-0.89-0.42-1.28-0.7c-4.13-2.3-7.86-4.75-10.92-7.29h0c-5.78,4.8-13.91,9.28-22.71,13.03 c-11.08,4.73-23.45,8.45-33.41,10.22l-0.01,63.42c1.17,35.44,26.35,42.1,50.79,48.57l4.42,1.18h1.83l4.42-1.18 C313.39,378.99,338.64,372.31,339.67,336.59z"/></g></svg>