<?xml version="1.0" encoding="UTF-8" standalone="no"?><svg xmlns="http://www.w3.org/2000/svg" xmlns:xlink="http://www.w3.org/1999/xlink" fill="#ffffff" height="25.8" preserveAspectRatio="xMidYMid meet" version="1" viewBox="-0.3 -1.5 24.6 25.8" width="24.6" zoomAndPan="magnify"><g id="change1_1"><path d="M22.631,7.979A4.676,4.676,0,0,0,23.81,3.351a.5.5,0,0,0-.833-.213l-2.051,2.05-1.81-.3-.3-1.81,2.05-2.051A.5.5,0,0,0,20.649.19a4.672,4.672,0,0,0-5.68,6.166L12.24,9.085,9.623,6.468l1.14-1.14a.508.508,0,0,0,.106-.551,1.617,1.617,0,0,1,.179-1.5,5.5,5.5,0,0,1,1.6-1.374.5.5,0,0,0,.118-.8c-.026-.026-2.654-2.579-5.6.374L.146,8.5a.5.5,0,0,0,0,.707l3.017,3.017a.5.5,0,0,0,.707,0L6.5,9.588,9.12,12.205,6.356,14.969A4.672,4.672,0,0,0,.19,20.649a.5.5,0,0,0,.833.213l2.051-2.05,1.81.3.3,1.81-2.05,2.051a.5.5,0,0,0,.213.833,4.672,4.672,0,0,0,5.68-6.166L11.8,14.88l8.432,8.432a2.168,2.168,0,0,0,1.541.638,2.231,2.231,0,0,0,1.579-.659,2.2,2.2,0,0,0,0-3.1L14.915,11.76l2.729-2.729A4.68,4.68,0,0,0,22.631,7.979ZM7.872,2.185C9.45.608,10.821,1,11.544,1.426a5.929,5.929,0,0,0-1.3,1.257,2.573,2.573,0,0,0-.4,2.152L5.327,9.35,3.018,7.04ZM3.517,11.16,1.207,8.851l1.1-1.1,2.309,2.31Zm4.568,6.016a.5.5,0,0,0-.1.568,3.68,3.68,0,0,1-.715,4.18A3.785,3.785,0,0,1,4.531,23L6.078,21.45a.5.5,0,0,0,.14-.436L5.811,18.6a.5.5,0,0,0-.411-.411l-2.414-.407a.5.5,0,0,0-.436.14L1,19.469a3.672,3.672,0,0,1,5.254-3.456.5.5,0,0,0,.568-.1l3-3,1.261,1.261Zm14.534,5.429a1.192,1.192,0,0,1-1.685,0L7.21,8.881,8.916,7.175,22.64,20.9A1.2,1.2,0,0,1,22.619,22.605ZM17.176,8.085l-2.968,2.968L12.947,9.792l2.968-2.968a.5.5,0,0,0,.1-.568,3.68,3.68,0,0,1,.715-4.18A3.808,3.808,0,0,1,19.469,1L17.922,2.55a.5.5,0,0,0-.14.436L18.189,5.4a.5.5,0,0,0,.411.411l2.414.407a.5.5,0,0,0,.436-.14L23,4.531a3.671,3.671,0,0,1-5.253,3.456A.5.5,0,0,0,17.176,8.085Z" fill="inherit"/></g></svg>