<?xml version="1.0" encoding="UTF-8" standalone="no"?><svg xmlns="http://www.w3.org/2000/svg" xmlns:xlink="http://www.w3.org/1999/xlink" fill="#ffffff" height="24.1" preserveAspectRatio="xMidYMid meet" version="1" viewBox="1.0 3.9 30.0 24.1" width="30" zoomAndPan="magnify"><g><g id="change1_1"><path d="M22.277,12.214c-3.543,0-6.425,2.882-6.425,6.424s2.882,6.425,6.425,6.425s6.425-2.882,6.425-6.425 S25.82,12.214,22.277,12.214z M27.677,18.139h-1.056c-0.044-1.379-0.407-2.685-1.05-3.8 C26.739,15.235,27.535,16.592,27.677,18.139z M22.789,24.038c-0.004,0-0.008,0-0.011,0.001v-4.899h2.815 C25.396,21.205,24.363,23.03,22.789,24.038z M18.933,19.139h2.845v4.899c-0.014-0.001-0.029-0.001-0.043-0.002 C20.161,23.029,19.13,21.204,18.933,19.139z M20.995,13.374c0.255-0.062,0.515-0.11,0.782-0.134v4.899h-2.872 C18.976,16.276,19.741,14.523,20.995,13.374z M22.777,18.139V13.24c0.253,0.023,0.5,0.067,0.743,0.124 c1.26,1.15,2.029,2.907,2.101,4.775H22.777z M18.928,14.38c-0.628,1.106-0.98,2.397-1.023,3.758h-1.027 C17.018,16.616,17.79,15.277,18.928,14.38z M16.878,19.139h1.055c0.131,1.555,0.682,2.996,1.557,4.146 C18.048,22.416,17.04,20.9,16.878,19.139z M25.007,23.319c0.891-1.155,1.452-2.609,1.585-4.18h1.085 C27.513,20.923,26.48,22.456,25.007,23.319z"/><path d="M4.445,21.477L3.142,22.78l1.736,1.736l1.303-1.303l1.478,1.478l1.86-6.552l-6.551,1.86L4.445,21.477z M4.878,20.496 l3.189-0.905l-0.905,3.188l-0.981-0.98l-1.303,1.303L4.556,22.78l1.304-1.303L4.878,20.496z"/><path d="M9.968 16.051H12.246V17.051H9.968z" transform="rotate(-45.009 11.107 16.55)"/><path d="M7.606 14.022H8.606V16.299H7.606z"/><path d="M11.338 19.03H13.614999999999998V20.03H11.338z"/><path d="M1,3.929v24.143h30V3.929H1z M30,4.929V9.5H2V4.929H30z M2,27.071V10.5h28v16.571H2z"/><path d="M26.925 8.617L27.542 7.999 28.16 8.617 28.867 7.91 28.25 7.292 28.867 6.675 28.16 5.968 27.542 6.585 26.925 5.968 26.218 6.675 26.835 7.292 26.218 7.91z"/><path d="M22.955 6.786H25.017V7.786H22.955z"/><path d="M4.299,8.79c0.83,0,1.505-0.675,1.505-1.504S5.129,5.781,4.299,5.781c-0.829,0-1.504,0.675-1.504,1.504 S3.47,8.79,4.299,8.79z M4.299,6.781c0.278,0,0.505,0.226,0.505,0.504S4.577,7.79,4.299,7.79S3.795,7.564,3.795,7.286 S4.021,6.781,4.299,6.781z"/><path d="M8.732,8.79c0.829,0,1.504-0.675,1.504-1.504S9.562,5.781,8.732,5.781c-0.83,0-1.505,0.675-1.505,1.504 S7.902,8.79,8.732,8.79z M8.732,6.781c0.278,0,0.504,0.226,0.504,0.504S9.011,7.79,8.732,7.79S8.228,7.564,8.228,7.286 S8.454,6.781,8.732,6.781z"/></g></g></svg>